<?xml version="1.0" encoding="UTF-8"?>
<svg viewBox="0 0 1539.5068 705.95148" xmlns="http://www.w3.org/2000/svg">
 <g transform="translate(395.88 101.39)">
  <g transform="translate(34.983 3.4597)">
   <path d="m561.89-48.376c-6.8879-12.484 7.3184-27.551 7.3184-27.551l-21.094-5.1659s3.0134 18.942-8.1794 25.83" fill="#fc0" fill-rule="evenodd" stroke="#000" stroke-linecap="round" stroke-width="4.7594"/>
   <path d="m480.1-48.376c6.8879-12.484-7.3184-27.551-7.3184-27.551l21.094-5.1659s-3.0134 18.942 8.1794 25.83" fill="#fc0" fill-rule="evenodd" stroke="#000" stroke-linecap="round" stroke-width="4.7594"/>
   <path d="m521.19-67.885c-24.856 0-45.021 8.4949-59.85 22.669-0.62239-0.51971-1.4652-0.98191-2.5562-1.5239-60.541-12.931-81.37 30.592-82.141 37.489s42.007 17.659 64.758-7.7721l0.78391-0.87627c-6.7308 14.659-10.259 31.661-10.259 49.795 0 55.075 61.214 99.78 89.264 99.78 29.139 0 89.264-44.706 89.264-99.78 0-18.338-3.777-35.52-10.838-50.29l1.227 1.3716c22.751 25.431 65.53 14.669 64.758 7.7721s-21.566-50.42-82.107-37.489c-1.2792 0.63548-2.2738 1.1608-2.8971 1.7906-14.981-14.32-35.127-22.935-59.407-22.935z" fill="#fc0" stroke="#000" stroke-linecap="round" stroke-linejoin="round" stroke-width="4.5074"/>
   <path d="m485.78 87.555s5.5147 157.61-24.51 211.17 157.48 51.709 126.84-2.7701-28.799-206.86-28.799-206.86" fill="#fc0" fill-rule="evenodd" stroke="#000" stroke-linecap="round" stroke-linejoin="round" stroke-width="5.1437"/>
   <path d="m560.96 171.05c0 17.084-8.5406 30.934-19.076 30.934s-19.076-13.85-19.076-30.934 8.5406-30.934 19.076-30.934 19.076 13.85 19.076 30.934z" fill="#784421"/>
   <path d="m517.83 247.09c0 11.959-6.8688 21.654-15.342 21.654s-15.342-9.6947-15.342-21.654 6.8688-21.654 15.342-21.654 15.342 9.6947 15.342 21.654z" fill="#784421"/>
   <path d="m685.57 423.32c0.0263 88.235-71.495 159.78-159.73 159.78s-159.76-71.543-159.73-159.78c-0.0263-88.235 71.495-159.78 159.73-159.78s159.76 71.543 159.73 159.78z" fill="#fc0" stroke="#000" stroke-linecap="round" stroke-linejoin="round" stroke-width="5.7"/>
   <path d="m434.12 495.23c6.1127 10.609 6.068 22.09-0.09982 25.644s-16.123-2.1652-22.236-12.774-6.068-22.09 0.09982-25.644 16.123 2.1651 22.236 12.774z" fill="#784421"/>
   <path d="m550.82 586.1c0 10.789 17.404 11.134 38.849 11.134s38.849 0.82301 38.849-11.134c0-21.025-17.404-38.088-38.849-38.088s-38.849 17.064-38.849 38.088z" fill="#784421" stroke="#000" stroke-linecap="round" stroke-linejoin="round" stroke-width="4.6389"/>
   <path d="m497.59 587.64c0 10.789-17.404 11.134-38.849 11.134s-38.849 0.82301-38.849-11.134c0-21.025 17.404-38.088 38.849-38.088s38.849 17.064 38.849 38.088z" fill="#784421" stroke="#000" stroke-linecap="round" stroke-linejoin="round" stroke-width="4.6389"/>
   <path d="m500.31-83.743c0 10.342-8.3841 18.726-18.726 18.726s-18.726-8.3841-18.726-18.726 8.3841-18.726 18.726-18.726 18.726 8.3841 18.726 18.726z" fill="#784421" stroke="#000" stroke-linecap="round" stroke-linejoin="round" stroke-width="4.7594"/>
   <path d="m578.23-83.743c0 10.342-8.3841 18.726-18.726 18.726s-18.726-8.3841-18.726-18.726 8.3841-18.726 18.726-18.726 18.726 8.3841 18.726 18.726z" fill="#784421" stroke="#000" stroke-linecap="round" stroke-linejoin="round" stroke-width="4.7594"/>
   <path d="m502.66 13.858c-5.1428 19.955-20.081 33.62-33.366 30.521s-19.885-21.787-14.742-41.742 20.081-33.62 33.366-30.521 19.885 21.787 14.742 41.742z" fill="#784421"/>
   <path d="m526.62 441.31c0 20.786-15.927 37.636-35.574 37.636s-35.574-16.85-35.574-37.636 15.927-37.636 35.574-37.636 35.574 16.85 35.574 37.636z" fill="#784421"/>
   <path d="m654.81 387.83c3.7818 11.345 1.592 22.294-4.8911 24.455s-14.804-5.2843-18.586-16.63-1.592-22.294 4.8911-24.455 14.804 5.2844 18.586 16.63z" fill="#784421"/>
   <path d="m649.52 485.15c0 11.959-7.8481 21.654-17.529 21.654s-17.529-9.6947-17.529-21.654 7.8481-21.654 17.529-21.654 17.529 9.6947 17.529 21.654z" fill="#784421"/>
   <path d="m590.99 61.549c0 11.959-7.8481 21.654-17.529 21.654s-17.529-9.6947-17.529-21.654 7.8481-21.654 17.529-21.654 17.529 9.6947 17.529 21.654z" fill="#784421"/>
   <path d="m590.99 56.928c0 14.511-9.523 26.275-21.27 26.275s-21.27-11.764-21.27-26.275 9.523-26.275 21.27-26.275 21.27 11.764 21.27 26.275z" fill="#784421"/>
   <path d="m595.13 339.31c0 17.084-12.465 30.934-27.84 30.934s-27.84-13.85-27.84-30.934 12.465-30.934 27.84-30.934 27.84 13.85 27.84 30.934z" fill="#784421"/>
   <path d="m573.59-19.475c2.9246 8.7738 1.2311 17.241-3.7825 18.912s-11.449-4.0866-14.373-12.86-1.2311-17.241 3.7825-18.912 11.449 4.0866 14.373 12.86z" fill="#784421"/>
   <path d="m532.25 60.841c0 10.577-8.1047 19.152-18.102 19.152s-18.102-8.5746-18.102-19.152 8.1047-19.152 18.102-19.152 18.102 8.5746 18.102 19.152z" fill="#784421"/>
   <path d="m516.29 119.51c0 9.5576-5.4895 17.306-12.261 17.306s-12.261-7.748-12.261-17.306 5.4895-17.306 12.261-17.306 12.261 7.748 12.261 17.306z" fill="#784421"/>
   <path d="m456.33 381.05c-7.0924 27.52-27.694 46.365-46.015 42.091s-27.423-30.046-20.331-57.566 27.694-46.365 46.015-42.091 27.423 30.047 20.331 57.566z" fill="#784421"/>
   <path d="m497.18 382.42c13.771 9.4488 21.628 21.77 18.689 63.442-2.9509 41.845-16.722 87.739-16.722 87.739s25.574-47.244 30.492-87.739c4.7145-38.819 6.8854-51.294 19.672-60.743" fill="#fc0" fill-rule="evenodd" stroke="#000" stroke-linecap="round" stroke-width="6.568"/>
   <path d="m503.25 507.4c5.4522-0.87809 8.1117-0.23424 10.472 3.3387 3.3415 5.0588-3.2138 17.684-9.3032 26.921-3.3798 5.1269-1.346 12.451-1.346 12.451l-2.3556-10.095-3.744 4.5233 0.71538-9.2344-9.0034 12.44 4.9653-14.123-6.285 3.2036c0.76044-5.5582 10.433-28.547 15.885-29.425z" fill="#784421" fill-rule="evenodd" stroke="#000" stroke-linejoin="round" stroke-width="2"/>
  </g>
  <g transform="translate(0 2.5917e-5)">
   <path d="m929.84 266.53c-88.235 0-159.78 71.546-159.75 159.78-0.0263 88.235 71.515 159.78 159.75 159.78s159.74-71.546 159.72-159.78c0.0037-12.342-1.3853-24.336-4.0313-35.875 1.5201-2.9333 2.6565 0.92966 8.8126 7.0625 5.847 21.498 15.454 43.664 26 116 13.784 20.939 4.8516-2.9893 4.1874-12.781 0.1787-39.827-24.12-119.74-32.808-135.99-8.9206-16.684-40.863-48.001-61.504-62.7l-0.125-0.09375c-27.411-22.129-62.277-35.406-100.25-35.406z" fill="#fc0" stroke="#000" stroke-linecap="round" stroke-linejoin="round" stroke-width="5.7"/>
   <path d="m997.82 591.1c0 10.789 17.404 11.134 38.849 11.134s38.849 0.82301 38.849-11.134c0-21.025-17.404-38.088-38.849-38.088s-38.849 17.064-38.849 38.088z" fill="#784421" stroke="#000" stroke-linecap="round" stroke-linejoin="round" stroke-width="4.6389"/>
   <path d="m860.59 590.64c0 10.789-17.404 11.134-38.849 11.134s-38.849 0.82301-38.849-11.134c0-21.025 17.404-38.088 38.849-38.088s38.849 17.064 38.849 38.088z" fill="#784421" stroke="#000" stroke-linecap="round" stroke-linejoin="round" stroke-width="4.6389"/>
   <path d="m790.93 348.22c29.883-64.217 25.232-227.71 25.232-227.71l71.008-22.076s-23.542 118.79 6.9511 184.11" fill="#fc0" fill-rule="evenodd" stroke="#000" stroke-linecap="round" stroke-linejoin="round" stroke-width="5.6192"/>
   <path d="m1126.7 506.4c-5.4521-0.87809-8.1117-0.23424-10.472 3.3387-3.3415 5.0588 3.2137 17.684 9.3032 26.921 3.3798 5.1269 1.346 12.451 1.346 12.451l2.3556-10.095 3.7439 4.5233-0.7153-9.2344 9.0034 12.44-4.9653-14.123 6.285 3.2036c-0.7605-5.5582-10.433-28.547-15.885-29.425z" fill="#784421" fill-rule="evenodd" stroke="#000" stroke-linejoin="round" stroke-width="2"/>
   <path d="m887.62 100.83c18.323-21.861 19.067-46.33 21.256-59.326s0.7117-20.28-2.4086-34.409-12.728-38.752-33.333-51.596c-14.73-12.441-31.386-14.485-51.469-10.301-7.2054 1.9227-26.261 8.6726-31.834 13.378-11.033 6.8143-22.476 19.242-31.797 32.966-29.133 46.738-39.017 105.04-20.87 126.95 9.2938 11.22 63.09 16.648 79.155 13.626" fill="#fc0" stroke="#000" stroke-linecap="round" stroke-linejoin="round" stroke-width="4.5074"/>
   <path d="m782.08-31.613c6.8879-12.484-7.3184-27.551-7.3184-27.551l21.094-5.1659s-3.0134 18.942 8.1794 25.83" fill="#fc0" fill-rule="evenodd" stroke="#000" stroke-linecap="round" stroke-width="4.7594"/>
   <path d="m797.93-75.379c0 10.342-8.3841 18.726-18.726 18.726s-18.726-8.3841-18.726-18.726 8.3841-18.726 18.726-18.726 18.726 8.3841 18.726 18.726z" fill="#784421" stroke="#000" stroke-linecap="round" stroke-linejoin="round" stroke-width="4.7594"/>
   <path d="m739.42 91.233c2.7916-4.8377 7.9148-7.1092 11.442-5.0729s4.1213 7.6088 1.3276 12.445-7.9148 7.1092-11.442 5.073-4.1213-7.6088-1.3275-12.445z"/>
   <path d="m802.89 30.464c-7.5736 13.321-23.137 18.761-34.759 12.15s-14.898-22.77-7.3172-36.087c7.5736-13.321 23.137-18.761 34.759-12.15s14.898 22.77 7.3172 36.087z" fill="#fff" stroke="#000" stroke-linecap="round" stroke-linejoin="round" stroke-width="4.4692"/>
   <path d="m781.77 24.081c-2.5245 4.4403-7.7124 6.2537-11.586 4.0499s-4.9659-7.5899-2.4391-12.029c2.5245-4.4403 7.7124-6.2537 11.586-4.0499s4.9659 7.5899 2.4391 12.029z"/>
   <path d="m846.87 16.187c-4.4922-20.111 2.6001-39.074 15.841-42.354s27.617 10.364 32.109 30.475-2.6001 39.074-15.841 42.354-27.617-10.364-32.109-30.475z" fill="#784421"/>
   <path d="m851.5 130.85c-0.66579-9.5344 4.2706-17.646 11.026-18.118s12.771 6.875 13.437 16.409-4.2706 17.646-11.026 18.118-12.771-6.875-13.437-16.409z" fill="#784421"/>
   <path d="m889.25 84.811c-5.1216 9.2546-13.318 14.519-18.307 11.758s-4.8814-12.501 0.24025-21.756 13.318-14.519 18.307-11.758 4.8814 12.501-0.2402 21.756z" fill="#784421"/>
   <path d="m817.14-34.237c18.738-19.799 21.213 4.2426 24.042 17.678-7.1448 22.827-16.994 35.454-28.284 4.9498" fill="none" stroke="#000" stroke-linecap="round" stroke-width="5.7"/>
   <path d="m818.05-25.129c11.764-15.138 14.452 1.4761 15.907 8.3897-7.0916 15.049-11.323 14.253-15.969-0.28132" fill="#d4aa00" fill-rule="evenodd" stroke="#000" stroke-linecap="round" stroke-width="3"/>
   <path d="m987.43 369.1c-15.971-23.507-16.504-51.422-1.1915-62.351s40.673-0.73207 56.644 22.775 16.504 51.422 1.1915 62.351-40.673 0.73211-56.644-22.775z" fill="#784421"/>
   <path d="m1021.9 497.06c6.2773-10.512 16.321-16.075 22.432-12.426s5.9775 15.13-0.2997 25.642-16.32 16.075-22.432 12.426-5.9775-15.13 0.2997-25.642z" fill="#784421"/>
   <path d="m1086.1 439.31c-1.7678 20.432-6.0594 36.929-9.3742 36.929-7.911 0-19.274-16.143-19.274-36.929s16.413-39.636 24.324-39.636 4.3239 30.85 4.3239 39.636z" fill="#784421"/>
   <path d="m862.74 366.08c-6.7477 15.695-23.669 23.496-37.795 17.423s-20.107-23.72-13.359-39.415 23.669-23.496 37.795-17.423 20.107 23.72 13.359 39.415z" fill="#784421"/>
   <path d="m839.75 177.22c0 11.959-5.5256 21.654-12.342 21.654s-12.342-9.6947-12.342-21.654 5.5256-21.654 12.342-21.654 12.342 9.6947 12.342 21.654z" fill="#784421"/>
   <path d="m877.83 255.09c0 11.959-6.8688 21.654-15.342 21.654s-15.342-9.6947-15.342-21.654 6.8688-21.654 15.342-21.654 15.342 9.6947 15.342 21.654z" fill="#784421"/>
   <path d="m909.78 416.32c0.3743 11.957-8.4408 21.755-19.689 21.885s-20.67-9.4577-21.045-21.415 8.4407-21.755 19.689-21.885 20.67 9.4577 21.045 21.415z" fill="#784421"/>
   <path d="m860.45 482.11c0 11.959-7.8481 21.654-17.529 21.654s-17.529-9.6947-17.529-21.654 7.8481-21.654 17.529-21.654 17.529 9.6947 17.529 21.654z" fill="#784421"/>
   <path d="m977.01 479.09c0 17.084-12.465 30.934-27.84 30.934s-27.84-13.85-27.84-30.934 12.465-30.934 27.84-30.934 27.84 13.85 27.84 30.934z" fill="#784421"/>
   <path d="m947.78 340.32c0.3743 11.957-8.4408 21.755-19.689 21.885s-20.67-9.4577-21.044-21.415 8.4407-21.755 19.689-21.885 20.67 9.4577 21.045 21.415z" fill="#784421"/>
  </g>
  <g transform="translate(14.602)">
   <path d="m332.06 426.78c0.0263 88.235-71.495 159.78-159.73 159.78s-159.76-71.543-159.73-159.78c-0.0263-88.235 71.495-159.78 159.73-159.78s159.76 71.543 159.73 159.78z" fill="#fc0" stroke="#000" stroke-linecap="round" stroke-linejoin="round" stroke-width="5.7"/>
   <path d="m80.618 498.69c6.1127 10.609 6.068 22.09-0.09982 25.644s-16.123-2.1652-22.236-12.774-6.068-22.09 0.09982-25.644 16.123 2.1651 22.236 12.774z" fill="#784421"/>
   <path d="m197.32 589.56c0 10.789 17.404 11.134 38.849 11.134s38.849 0.82301 38.849-11.134c0-21.025-17.404-38.088-38.849-38.088s-38.849 17.064-38.849 38.088z" fill="#784421" stroke="#000" stroke-linecap="round" stroke-linejoin="round" stroke-width="4.6389"/>
   <path d="m251.11 599.98c0-19.425-11.207-31.378-11.207-31.378s4.4826 16.436 3.7355 31.378h7.471z" fill-opacity=".31373" fill-rule="evenodd" stroke="#000" stroke-linejoin="round" stroke-width="4.6389"/>
   <path d="m107.77 302.18c30.024-53.555 24.51-181.9 24.51-181.9l73.529-4.6168s-1.8382 129.27 28.799 183.75" fill="#fc0" fill-rule="evenodd" stroke="#000" stroke-linecap="round" stroke-linejoin="round" stroke-width="5.1437"/>
   <path d="m199.75 181.23c0 11.959-6.8688 21.654-15.342 21.654s-15.342-9.6947-15.342-21.654 6.8688-21.654 15.342-21.654 15.342 9.6947 15.342 21.654z" fill="#784421"/>
   <path d="m167.68-64.425c-24.856 0-45.021 8.4949-59.85 22.669-0.62239-0.51971-1.4652-0.98191-2.5562-1.5239-60.541-12.931-81.37 30.592-82.141 37.489s42.007 17.659 64.758-7.7721l0.78391-0.87627c-6.7308 14.659-10.259 31.661-10.259 49.795 0 55.075 61.214 99.78 89.264 99.78 29.139 0 89.264-44.706 89.264-99.78 0-18.338-3.777-35.52-10.838-50.29l1.227 1.3716c22.751 25.431 65.53 14.669 64.758 7.7721s-21.566-50.42-82.107-37.489c-1.2792 0.63548-2.2738 1.1609-2.8971 1.7906-14.981-14.32-35.127-22.935-59.407-22.935z" fill="#fc0" stroke="#000" stroke-linecap="round" stroke-linejoin="round" stroke-width="4.5074"/>
   <path d="m163.28 20.748c0.00454 15.243-12.351 27.603-27.595 27.603s-27.599-12.359-27.595-27.603 12.351-27.603 27.595-27.603 27.599 12.359 27.595 27.603z" fill="#fff" stroke="#000" stroke-linecap="round" stroke-linejoin="round" stroke-width="4.7594"/>
   <path d="m227.48 20.748c0.00454 15.243-12.351 27.603-27.595 27.603s-27.599-12.359-27.595-27.603 12.351-27.603 27.595-27.603 27.599 12.359 27.595 27.603z" fill="#fff" stroke="#000" stroke-linecap="round" stroke-linejoin="round" stroke-width="4.7594"/>
   <path d="m202.96 25.619c0.00152 5.0811-4.1171 9.2009-9.1982 9.2009s-9.1997-4.1198-9.1982-9.2009 4.1171-9.2009 9.1982-9.2009 9.1997 4.1198 9.1982 9.2009z"/>
   <path d="m151.78 25.619c0.00152 5.0811-4.1171 9.2009-9.1982 9.2009s-9.1997-4.1198-9.1982-9.2009 4.1171-9.2009 9.1982-9.2009 9.1997 4.1198 9.1982 9.2009z"/>
   <path d="m144.09 591.1c0 10.789-17.404 11.134-38.849 11.134s-38.849 0.82301-38.849-11.134c0-21.025 17.404-38.088 38.849-38.088s38.849 17.064 38.849 38.088z" fill="#784421" stroke="#000" stroke-linecap="round" stroke-linejoin="round" stroke-width="4.6389"/>
   <path d="m90.297 601.52c0-19.425 11.207-31.378 11.207-31.378s-4.4826 16.436-3.7355 31.378h-7.471z" fill-opacity=".31373" fill-rule="evenodd" stroke="#000" stroke-linejoin="round" stroke-width="4.6389"/>
   <path d="m187.9 99.444c-2.7916 4.8377-7.9148 7.1092-11.442 5.0729s-4.1213-7.6088-1.3276-12.445 7.9148-7.1092 11.442-5.073 4.1213 7.6088 1.3275 12.445z"/>
   <path d="m148.04 99.444c2.7916 4.8377 7.9148 7.1092 11.442 5.0729s4.1213-7.6088 1.3276-12.445-7.9148-7.1092-11.442-5.073-4.1213 7.6088-1.3275 12.445z"/>
   <path d="m126.6-44.916c6.8879-12.484-7.3184-27.551-7.3184-27.551l21.094-5.1659s-3.0134 18.942 8.1794 25.83" fill="#fc0" fill-rule="evenodd" stroke="#000" stroke-linecap="round" stroke-width="4.7594"/>
   <path d="m146.8-80.284c0 10.342-8.3841 18.726-18.726 18.726s-18.726-8.3841-18.726-18.726 8.3841-18.726 18.726-18.726 18.726 8.3841 18.726 18.726z" fill="#784421" stroke="#000" stroke-linecap="round" stroke-linejoin="round" stroke-width="4.7594"/>
   <path d="m241.1-35.242c39.026-5.5685 57.286 20.683 58.718 24.66s-38.31 12.33-58.718-24.66z" fill="#d4aa00" fill-rule="evenodd" stroke="#000" stroke-linejoin="round" stroke-width="3"/>
   <path d="m208.39-44.916c-6.8879-12.484 7.3184-27.551 7.3184-27.551l-21.094-5.1659s3.0134 18.942-8.1794 25.83" fill="#fc0" fill-rule="evenodd" stroke="#000" stroke-linecap="round" stroke-width="4.7594"/>
   <path d="m224.73-80.284c0 10.342-8.3841 18.726-18.726 18.726s-18.726-8.3841-18.726-18.726 8.3841-18.726 18.726-18.726 18.726 8.3841 18.726 18.726z" fill="#784421" stroke="#000" stroke-linecap="round" stroke-linejoin="round" stroke-width="4.7594"/>
   <path d="m75.588 387.6c-4.0682 16.593-15.885 27.955-26.394 25.379s-15.73-18.116-11.662-34.709 15.885-27.955 26.394-25.379 15.73 18.116 11.662 34.709z" fill="#784421"/>
   <path d="m182.36 437.07c0 20.786-15.927 37.636-35.574 37.636s-35.574-16.85-35.574-37.636 15.927-37.636 35.574-37.636 35.574 16.85 35.574 37.636z" fill="#784421"/>
   <path d="m295.15 366.65c3.7818 11.345 1.592 22.294-4.8911 24.455s-14.804-5.2843-18.586-16.63-1.592-22.294 4.8911-24.455 14.804 5.2844 18.586 16.63z" fill="#784421"/>
   <path d="m274.45 470.12c0 11.959-7.8481 21.654-17.529 21.654s-17.529-9.6947-17.529-21.654 7.8481-21.654 17.529-21.654 17.529 9.6947 17.529 21.654z" fill="#784421"/>
   <path d="m237.01 355.1c0 17.084-12.465 30.934-27.84 30.934s-27.84-13.85-27.84-30.934 12.465-30.934 27.84-30.934 27.84 13.85 27.84 30.934z" fill="#784421"/>
   <path d="m176.64 251.53c0 17.084-8.5406 30.934-19.076 30.934s-19.076-13.85-19.076-30.934 8.5406-30.934 19.076-30.934 19.076 13.85 19.076 30.934z" fill="#784421"/>
   <path d="m93.724-35.242c-39.026-5.5685-57.286 20.683-58.718 24.66s38.31 12.33 58.718-24.66z" fill="#d4aa00" fill-rule="evenodd" stroke="#000" stroke-linejoin="round" stroke-width="3"/>
  </g>
  <path d="m-182.09 266.53c88.235 0 159.78 71.546 159.75 159.78 0.0263 88.235-71.515 159.78-159.75 159.78s-159.74-71.546-159.72-159.78c-0.0037-12.342 1.3853-24.336 4.0313-35.875-1.5201-2.9333-2.6565 0.92966-8.8126 7.0625-5.847 21.498-15.454 43.664-26 116-13.784 20.939-4.8516-2.9893-4.1874-12.781-0.1787-39.827 24.12-119.74 32.808-135.99 8.9206-16.684 40.863-48.001 61.504-62.7l0.125-0.09375c27.411-22.129 62.277-35.406 100.25-35.406z" fill="#fc0" stroke="#000" stroke-linecap="round" stroke-linejoin="round" stroke-width="5.7"/>
  <path d="m-250.07 591.1c0 10.789-17.404 11.134-38.849 11.134s-38.849 0.82301-38.849-11.134c0-21.025 17.404-38.088 38.849-38.088s38.849 17.064 38.849 38.088z" fill="#784421" stroke="#000" stroke-linecap="round" stroke-linejoin="round" stroke-width="4.6389"/>
  <path d="m-112.84 590.64c0 10.789 17.404 11.134 38.849 11.134s38.849 0.82301 38.849-11.134c0-21.025-17.404-38.088-38.849-38.088s-38.849 17.064-38.849 38.088z" fill="#784421" stroke="#000" stroke-linecap="round" stroke-linejoin="round" stroke-width="4.6389"/>
  <path d="m-43.181 348.22c-29.883-64.217-25.232-227.71-25.232-227.71l-71.008-22.076s23.542 118.79-6.9511 184.11" fill="#fc0" fill-rule="evenodd" stroke="#000" stroke-linecap="round" stroke-linejoin="round" stroke-width="5.6192"/>
  <path d="m-378.99 506.4c5.4521-0.87809 8.1117-0.23424 10.472 3.3387 3.3415 5.0588-3.2137 17.684-9.3032 26.921-3.3798 5.1269-1.346 12.451-1.346 12.451l-2.3556-10.095-3.7439 4.5233 0.7153-9.2344-9.0034 12.44 4.9653-14.123-6.285 3.2036c0.7605-5.5582 10.433-28.547 15.885-29.425z" fill="#784421" fill-rule="evenodd" stroke="#000" stroke-linejoin="round" stroke-width="2"/>
  <path d="m-139.87 100.83c-18.323-21.861-19.067-46.33-21.256-59.326s-0.7117-20.28 2.4086-34.409 12.728-38.752 33.333-51.596c14.73-12.441 31.386-14.485 51.469-10.301 7.2054 1.9227 26.261 8.6726 31.834 13.378 11.033 6.8143 22.476 19.242 31.797 32.966 29.133 46.738 39.017 105.04 20.87 126.95-9.2938 11.22-63.09 16.648-79.155 13.626" fill="#fc0" stroke="#000" stroke-linecap="round" stroke-linejoin="round" stroke-width="4.5074"/>
  <path d="m-34.327-31.613c-6.8879-12.484 7.3184-27.551 7.3184-27.551l-21.094-5.1659s3.0134 18.942-8.1794 25.83" fill="#fc0" fill-rule="evenodd" stroke="#000" stroke-linecap="round" stroke-width="4.7594"/>
  <path d="m-50.177-75.379c0 10.342 8.3841 18.726 18.726 18.726s18.726-8.3841 18.726-18.726-8.3841-18.726-18.726-18.726-18.726 8.3841-18.726 18.726z" fill="#784421" stroke="#000" stroke-linecap="round" stroke-linejoin="round" stroke-width="4.7594"/>
  <path d="m-55.138 30.464c7.5736 13.321 23.137 18.761 34.759 12.15s14.898-22.77 7.3172-36.087c-7.5736-13.321-23.137-18.761-34.759-12.15s-14.898 22.77-7.3172 36.087z" fill="#fff" stroke="#000" stroke-linecap="round" stroke-linejoin="round" stroke-width="4.4692"/>
  <path d="m-34.017 24.081c2.5245 4.4403 7.7124 6.2537 11.586 4.0499s4.9659-7.5899 2.4391-12.029c-2.5245-4.4403-7.7124-6.2537-11.586-4.0499s-4.9659 7.5899-2.4391 12.029z"/>
  <path d="m-69.386-34.237c-18.738-19.799-21.213 4.2426-24.042 17.678 7.1448 22.827 16.994 35.454 28.284 4.9498" fill="none" stroke="#000" stroke-linecap="round" stroke-width="5.7"/>
  <path d="m-70.302-25.129c-11.764-15.138-14.452 1.4761-15.907 8.3897 7.0916 15.049 11.323 14.253 15.969-0.28133" fill="#d4aa00" fill-rule="evenodd" stroke="#000" stroke-linecap="round" stroke-width="3"/>
  <path d="m-338.87 437.38c0.66456 12.585 2.2779 22.747 3.524 22.747 2.9739 0 7.2454-9.9435 7.2454-22.747s-6.17-24.414-9.144-24.414-1.6254 19.002-1.6254 24.414z" fill="#784421"/>
  <path d="m-227.21 357.59c-8.3114 14.926-25.939 20.963-39.373 13.482s-17.586-25.644-9.2745-40.571 25.939-20.963 39.373-13.482 17.586 25.644 9.2745 40.571z" fill="#784421"/>
  <path d="m-206.04 422.46c0.3743 11.957-8.4408 21.755-19.689 21.885s-20.67-9.4577-21.045-21.415 8.4407-21.755 19.689-21.885 20.67 9.4577 21.045 21.415z" fill="#784421"/>
  <path d="m-285.73 520.42c-8.2976-8.612-9.3725-21.039-2.4009-27.756s19.35-5.181 27.648 3.431 9.3726 21.039 2.4009 27.756-19.35 5.181-27.648-3.431z" fill="#784421"/>
  <path d="m-106.55 175.78c0 17.084-6.0079 30.934-13.419 30.934s-13.419-13.85-13.419-30.934 6.0079-30.934 13.419-30.934 13.419 13.85 13.419 30.934z" fill="#784421"/>
  <path d="m-105.77 358.66c-6.5696-15.771-3.7984-31.928 6.1897-36.089s23.411 5.251 29.98 21.022 3.7984 31.928-6.1897 36.089-23.411-5.251-29.98-21.022z" fill="#784421"/>
  <path d="m-25.452 436.97c-1.7678 20.432-6.0594 36.929-9.3742 36.929-7.911 0-19.274-16.143-19.274-36.929s16.413-39.636 24.324-39.636 4.3239 30.85 4.3239 39.636z" fill="#784421"/>
  <path d="m-107.58 246.75c0.14456 17.084 8.802 30.861 19.337 30.771s18.958-14.011 18.813-31.094-8.802-30.861-19.337-30.771-18.958 14.011-18.813 31.094z" fill="#784421"/>
  <path d="m-136.11-14.747c-2.9246 8.7738-1.2311 17.241 3.7825 18.912s11.449-4.0866 14.373-12.86 1.2311-17.241-3.7825-18.912-11.449 4.0866-14.373 12.86z" fill="#784421"/>
  <path d="m-134.62 64.484c0 14.511 9.523 26.275 21.27 26.275s21.27-11.764 21.27-26.275-9.523-26.275-21.27-26.275-21.27 11.764-21.27 26.275z" fill="#784421"/>
  <path d="m-85.495 517.54c-7.0774 9.991-17.524 14.755-23.332 10.64s-4.7803-15.55 2.2971-25.541 17.524-14.755 23.332-10.64 4.7803 15.55-2.2971 25.541z" fill="#784421"/>
  <path d="m-143.42 478.85c0 17.084-12.465 30.934-27.84 30.934s-27.84-13.85-27.84-30.934 12.465-30.934 27.84-30.934 27.84 13.85 27.84 30.934z" fill="#784421"/>
  <path d="m-155.13 364.47c0.3743 11.957-8.4408 21.755-19.689 21.885s-20.67-9.4577-21.045-21.415 8.4407-21.755 19.689-21.885 20.67 9.4577 21.045 21.415z" fill="#784421"/>
  <path d="m8.3333 89.102c-2.7916-4.8377-7.9148-7.1092-11.442-5.0729s-4.1213 7.6088-1.3276 12.445 7.9148 7.1092 11.442 5.073 4.1213-7.6088 1.3275-12.445z"/>
 </g>
</svg>