<?xml version="1.0" encoding="UTF-8"?>
<!-- Generator: Adobe Illustrator 24.0.0, SVG Export Plug-In . SVG Version: 6.00 Build 0)  -->
<svg version="1.1" id="Layer_1" xmlns="http://www.w3.org/2000/svg" xmlns:xlink="http://www.w3.org/1999/xlink" x="0px" y="0px" viewBox="0 0 295.18 117.3" style="enable-background:new 0 0 295.18 117.3;" xml:space="preserve">
<style type="text/css">
	.st0{fill:#001A3F;}
	.st1{fill:#2FABE1;}
</style>
<g>
	<g>
		<path class="st0" d="M66.21,82.21h2.33v6.73c0,0.75,0.09,1.3,0.27,1.65c0.28,0.61,0.88,0.92,1.81,0.92c0.92,0,1.52-0.31,1.8-0.92    c0.18-0.35,0.27-0.9,0.27-1.65v-6.73H75v6.73c0,1.16-0.18,2.07-0.54,2.72c-0.67,1.19-1.96,1.78-3.85,1.78s-3.18-0.59-3.86-1.78    c-0.36-0.65-0.54-1.56-0.54-2.72V82.21z"/>
		<path class="st0" d="M83.56,85.53c0.53,0.44,0.79,1.17,0.79,2.18v5.45h-2.17v-4.93c0-0.43-0.06-0.75-0.17-0.98    c-0.21-0.42-0.6-0.62-1.18-0.62c-0.71,0-1.2,0.3-1.47,0.91c-0.14,0.32-0.21,0.73-0.21,1.23v4.38h-2.12v-8.08h2.05v1.18    c0.27-0.42,0.53-0.72,0.77-0.9c0.43-0.33,0.98-0.49,1.65-0.49C82.34,84.87,83.02,85.09,83.56,85.53z"/>
		<path class="st0" d="M88.5,84.1h-2.15v-1.95h2.15V84.1z M86.35,85.06h2.15v8.1h-2.15V85.06z"/>
		<path class="st0" d="M89.71,86.65v-1.51h1.13v-2.26h2.09v2.26h1.31v1.51h-1.31v4.28c0,0.33,0.04,0.54,0.13,0.62    c0.08,0.08,0.34,0.12,0.77,0.12c0.06,0,0.13,0,0.2,0c0.07,0,0.14-0.01,0.21-0.01v1.58l-1,0.04c-1,0.03-1.68-0.14-2.05-0.52    c-0.24-0.24-0.36-0.62-0.36-1.12v-4.98H89.71z"/>
		<path class="st0" d="M100.89,85.23c0.56,0.25,1.03,0.65,1.4,1.2c0.33,0.48,0.55,1.04,0.65,1.67c0.06,0.37,0.08,0.91,0.07,1.61    h-5.9c0.03,0.81,0.32,1.38,0.85,1.71c0.32,0.2,0.71,0.3,1.17,0.3c0.48,0,0.87-0.12,1.18-0.37c0.16-0.13,0.31-0.32,0.44-0.56h2.16    c-0.06,0.48-0.32,0.97-0.78,1.46c-0.73,0.79-1.74,1.18-3.05,1.18c-1.08,0-2.03-0.33-2.85-1c-0.82-0.66-1.24-1.75-1.24-3.24    c0-1.4,0.37-2.48,1.12-3.23c0.74-0.75,1.71-1.12,2.9-1.12C99.69,84.85,100.32,84.97,100.89,85.23z M97.72,87.06    c-0.3,0.31-0.49,0.73-0.56,1.25h3.65c-0.04-0.56-0.23-0.99-0.56-1.28s-0.76-0.44-1.26-0.44C98.44,86.59,98.02,86.75,97.72,87.06z"/>
		<path class="st0" d="M108.37,85.19c0.38,0.22,0.69,0.51,0.93,0.9v-3.86h2.15v10.94h-2.06v-1.12c-0.3,0.48-0.65,0.83-1.03,1.05    s-0.87,0.33-1.44,0.33c-0.95,0-1.74-0.38-2.39-1.15c-0.65-0.77-0.97-1.75-0.97-2.95c0-1.38,0.32-2.47,0.95-3.26    c0.64-0.79,1.49-1.19,2.55-1.19C107.55,84.87,107.99,84.98,108.37,85.19z M108.89,90.96c0.31-0.45,0.47-1.02,0.47-1.73    c0-0.99-0.25-1.7-0.75-2.12c-0.31-0.26-0.66-0.39-1.07-0.39c-0.62,0-1.07,0.23-1.36,0.7c-0.29,0.47-0.43,1.05-0.43,1.74    c0,0.75,0.15,1.35,0.44,1.79c0.29,0.45,0.74,0.67,1.34,0.67C108.12,91.63,108.58,91.41,108.89,90.96z"/>
		<path class="st0" d="M117.73,82.21h2.4l4.35,7.63v-7.63h2.13v10.95h-2.29l-4.46-7.77v7.77h-2.13V82.21z"/>
		<path class="st0" d="M131.79,88.24c0.39-0.05,0.68-0.11,0.85-0.19c0.3-0.13,0.46-0.33,0.46-0.6c0-0.33-0.12-0.56-0.35-0.69    c-0.23-0.13-0.58-0.19-1.03-0.19c-0.51,0-0.87,0.12-1.08,0.37c-0.15,0.18-0.25,0.43-0.3,0.74h-2.04c0.04-0.71,0.24-1.29,0.6-1.75    c0.56-0.71,1.53-1.07,2.9-1.07c0.89,0,1.68,0.18,2.37,0.53c0.69,0.35,1.04,1.02,1.04,1.99v3.71c0,0.26,0,0.57,0.01,0.94    c0.02,0.28,0.06,0.47,0.13,0.56s0.17,0.18,0.31,0.25v0.31h-2.3c-0.06-0.16-0.11-0.32-0.13-0.46c-0.02-0.14-0.04-0.31-0.06-0.49    c-0.29,0.32-0.63,0.59-1.02,0.81c-0.46,0.26-0.98,0.39-1.55,0.39c-0.74,0-1.35-0.21-1.83-0.63c-0.48-0.42-0.72-1.01-0.72-1.78    c0-1,0.39-1.72,1.16-2.16c0.42-0.24,1.05-0.42,1.87-0.52L131.79,88.24z M133.08,89.22c-0.14,0.08-0.27,0.15-0.41,0.2    c-0.14,0.05-0.33,0.1-0.57,0.15l-0.48,0.09c-0.45,0.08-0.78,0.18-0.97,0.29c-0.33,0.19-0.5,0.49-0.5,0.9    c0,0.36,0.1,0.62,0.31,0.78c0.2,0.16,0.45,0.24,0.74,0.24c0.46,0,0.89-0.13,1.28-0.4c0.39-0.27,0.59-0.75,0.61-1.46V89.22z"/>
		<path class="st0" d="M136.21,86.65v-1.51h1.13v-2.26h2.09v2.26h1.31v1.51h-1.31v4.28c0,0.33,0.04,0.54,0.13,0.62    c0.08,0.08,0.34,0.12,0.77,0.12c0.06,0,0.13,0,0.2,0c0.07,0,0.14-0.01,0.21-0.01v1.58l-1,0.04c-1,0.03-1.68-0.14-2.05-0.52    c-0.24-0.24-0.36-0.62-0.36-1.12v-4.98H136.21z"/>
		<path class="st0" d="M144.28,84.1h-2.15v-1.95h2.15V84.1z M142.14,85.06h2.15v8.1h-2.15V85.06z"/>
		<path class="st0" d="M153.09,92.17c-0.68,0.84-1.72,1.27-3.11,1.27s-2.43-0.42-3.11-1.27c-0.68-0.84-1.03-1.86-1.03-3.05    c0-1.17,0.34-2.18,1.03-3.04c0.68-0.86,1.72-1.28,3.11-1.28s2.43,0.43,3.11,1.28s1.02,1.87,1.02,3.04    C154.11,90.31,153.77,91.33,153.09,92.17z M151.39,91c0.33-0.44,0.5-1.07,0.5-1.88s-0.17-1.44-0.5-1.87    c-0.33-0.44-0.81-0.66-1.43-0.66s-1.1,0.22-1.43,0.66c-0.33,0.44-0.5,1.06-0.5,1.87s0.17,1.44,0.5,1.88    c0.33,0.44,0.81,0.66,1.43,0.66S151.06,91.44,151.39,91z"/>
		<path class="st0" d="M162.16,85.53c0.53,0.44,0.79,1.17,0.79,2.18v5.45h-2.17v-4.93c0-0.43-0.06-0.75-0.17-0.98    c-0.21-0.42-0.6-0.62-1.18-0.62c-0.71,0-1.2,0.3-1.47,0.91c-0.14,0.32-0.21,0.73-0.21,1.23v4.38h-2.12v-8.08h2.05v1.18    c0.27-0.42,0.53-0.72,0.77-0.9c0.43-0.33,0.98-0.49,1.65-0.49C160.95,84.87,161.63,85.09,162.16,85.53z"/>
		<path class="st0" d="M166.56,90.58c0.04,0.38,0.14,0.64,0.29,0.8c0.26,0.28,0.75,0.42,1.46,0.42c0.42,0,0.75-0.06,1-0.19    c0.25-0.12,0.37-0.31,0.37-0.56c0-0.24-0.1-0.42-0.3-0.54s-0.94-0.34-2.21-0.64c-0.92-0.23-1.57-0.51-1.94-0.85    c-0.38-0.34-0.56-0.82-0.56-1.46c0-0.75,0.29-1.39,0.88-1.93c0.59-0.54,1.42-0.81,2.48-0.81c1.01,0,1.84,0.2,2.48,0.61    c0.64,0.4,1,1.1,1.1,2.09h-2.12c-0.03-0.27-0.11-0.49-0.23-0.65c-0.23-0.29-0.63-0.43-1.19-0.43c-0.46,0-0.79,0.07-0.99,0.22    c-0.2,0.14-0.29,0.31-0.29,0.51c0,0.24,0.1,0.42,0.31,0.53c0.21,0.11,0.95,0.31,2.21,0.59c0.84,0.2,1.48,0.5,1.9,0.9    c0.42,0.41,0.62,0.91,0.62,1.52c0,0.8-0.3,1.46-0.9,1.96c-0.6,0.51-1.52,0.76-2.77,0.76c-1.28,0-2.22-0.27-2.83-0.81    c-0.61-0.54-0.91-1.22-0.91-2.05H166.56z"/>
	</g>
	<g>
		<path class="st0" d="M74.17,100.47v1.94h-3.28v9.01h-2.3v-9.01H65.3v-1.94H74.17z"/>
		<path class="st0" d="M79.5,103.48c0.56,0.25,1.03,0.65,1.4,1.2c0.33,0.48,0.55,1.04,0.65,1.67c0.06,0.37,0.08,0.91,0.07,1.61h-5.9    c0.03,0.81,0.32,1.38,0.85,1.71c0.32,0.2,0.71,0.3,1.17,0.3c0.48,0,0.87-0.12,1.18-0.37c0.16-0.13,0.31-0.32,0.44-0.56h2.16    c-0.06,0.48-0.32,0.97-0.78,1.46c-0.73,0.79-1.74,1.18-3.05,1.18c-1.08,0-2.03-0.33-2.85-1c-0.82-0.66-1.24-1.75-1.24-3.24    c0-1.4,0.37-2.48,1.12-3.23c0.74-0.75,1.71-1.12,2.9-1.12C78.3,103.1,78.93,103.23,79.5,103.48z M76.33,105.31    c-0.3,0.31-0.49,0.73-0.56,1.25h3.65c-0.04-0.56-0.23-0.99-0.56-1.28s-0.76-0.44-1.26-0.44C77.05,104.85,76.63,105,76.33,105.31z"/>
		<path class="st0" d="M87.53,106.22c-0.04-0.3-0.14-0.57-0.31-0.82c-0.24-0.33-0.61-0.49-1.11-0.49c-0.71,0-1.2,0.35-1.47,1.06    c-0.14,0.38-0.21,0.87-0.21,1.5c0,0.59,0.07,1.07,0.21,1.43c0.25,0.67,0.73,1.01,1.43,1.01c0.5,0,0.85-0.13,1.06-0.4    c0.21-0.27,0.33-0.61,0.38-1.04h2.16c-0.05,0.64-0.28,1.25-0.7,1.83c-0.66,0.93-1.65,1.39-2.95,1.39s-2.26-0.39-2.88-1.16    c-0.61-0.77-0.92-1.77-0.92-3.01c0-1.39,0.34-2.47,1.02-3.24c0.68-0.77,1.62-1.16,2.81-1.16c1.02,0,1.85,0.23,2.49,0.68    s1.03,1.26,1.15,2.41H87.53z"/>
		<path class="st0" d="M96.96,103.36c0.41,0.17,0.74,0.44,1,0.8c0.22,0.3,0.36,0.61,0.41,0.93c0.05,0.32,0.07,0.84,0.07,1.56v4.76    h-2.16v-4.93c0-0.44-0.07-0.79-0.22-1.06c-0.19-0.38-0.56-0.57-1.09-0.57c-0.56,0-0.98,0.19-1.26,0.56    c-0.29,0.37-0.43,0.91-0.43,1.6v4.39h-2.12V100.5h2.12v3.86c0.31-0.47,0.66-0.8,1.06-0.98c0.4-0.19,0.82-0.28,1.27-0.28    C96.1,103.1,96.56,103.19,96.96,103.36z"/>
		<path class="st0" d="M106.97,103.78c0.53,0.44,0.79,1.17,0.79,2.18v5.45h-2.17v-4.93c0-0.43-0.06-0.75-0.17-0.98    c-0.21-0.42-0.6-0.62-1.18-0.62c-0.71,0-1.2,0.3-1.47,0.91c-0.14,0.32-0.21,0.73-0.21,1.23v4.38h-2.12v-8.08h2.05v1.18    c0.27-0.42,0.53-0.72,0.77-0.9c0.43-0.33,0.98-0.49,1.65-0.49C105.75,103.12,106.44,103.34,106.97,103.78z"/>
		<path class="st0" d="M116.48,110.42c-0.68,0.84-1.72,1.27-3.11,1.27s-2.43-0.42-3.11-1.27c-0.68-0.84-1.03-1.86-1.03-3.05    c0-1.17,0.34-2.18,1.03-3.04c0.68-0.86,1.72-1.28,3.11-1.28s2.43,0.43,3.11,1.28s1.02,1.87,1.02,3.04    C117.51,108.57,117.17,109.58,116.48,110.42z M114.79,109.25c0.33-0.44,0.5-1.07,0.5-1.88s-0.17-1.44-0.5-1.87    c-0.33-0.44-0.81-0.66-1.43-0.66s-1.1,0.22-1.43,0.66c-0.33,0.44-0.5,1.06-0.5,1.87s0.17,1.44,0.5,1.88    c0.33,0.44,0.81,0.66,1.43,0.66S114.46,109.69,114.79,109.25z"/>
		<path class="st0" d="M121.19,111.41h-2.12v-10.95h2.12V111.41z"/>
		<path class="st0" d="M130,110.42c-0.68,0.84-1.72,1.27-3.11,1.27s-2.43-0.42-3.11-1.27c-0.68-0.84-1.03-1.86-1.03-3.05    c0-1.17,0.34-2.18,1.03-3.04c0.68-0.86,1.72-1.28,3.11-1.28s2.43,0.43,3.11,1.28s1.02,1.87,1.02,3.04    C131.03,108.57,130.69,109.58,130,110.42z M128.31,109.25c0.33-0.44,0.5-1.07,0.5-1.88s-0.17-1.44-0.5-1.87    c-0.33-0.44-0.81-0.66-1.43-0.66s-1.1,0.22-1.43,0.66c-0.33,0.44-0.5,1.06-0.5,1.87s0.17,1.44,0.5,1.88    c0.33,0.44,0.81,0.66,1.43,0.66S127.98,109.69,128.31,109.25z"/>
		<path class="st0" d="M136.55,103.31c0.51,0.21,0.93,0.6,1.25,1.17v-1.17h2.06V111c0,1.04-0.18,1.83-0.53,2.36    c-0.6,0.91-1.76,1.37-3.48,1.37c-1.04,0-1.88-0.2-2.53-0.61c-0.65-0.41-1.02-1.01-1.08-1.82h2.3c0.06,0.25,0.16,0.43,0.29,0.54    c0.23,0.19,0.61,0.29,1.15,0.29c0.76,0,1.27-0.25,1.53-0.77c0.17-0.33,0.25-0.88,0.25-1.65v-0.52c-0.2,0.35-0.42,0.61-0.65,0.78    c-0.42,0.32-0.97,0.48-1.64,0.48c-1.04,0-1.87-0.37-2.49-1.1s-0.93-1.72-0.93-2.97c0-1.2,0.3-2.21,0.9-3.03    c0.6-0.82,1.45-1.23,2.54-1.23C135.89,103.12,136.25,103.19,136.55,103.31z M137.27,109.12c0.34-0.37,0.51-0.97,0.51-1.79    c0-0.77-0.16-1.35-0.48-1.75c-0.32-0.4-0.76-0.6-1.3-0.6c-0.74,0-1.25,0.35-1.53,1.05c-0.15,0.37-0.22,0.83-0.22,1.37    c0,0.47,0.08,0.89,0.24,1.26c0.29,0.68,0.8,1.03,1.54,1.03C136.51,109.68,136.93,109.49,137.27,109.12z"/>
		<path class="st0" d="M142.16,112.97l0.27,0.01c0.21,0.01,0.41,0,0.59-0.02c0.19-0.02,0.35-0.08,0.48-0.17    c0.12-0.08,0.24-0.26,0.35-0.53c0.11-0.27,0.15-0.43,0.14-0.49l-2.98-8.45h2.35l1.77,5.97l1.67-5.97h2.25l-2.78,7.96    c-0.54,1.54-0.96,2.49-1.27,2.86c-0.31,0.37-0.94,0.55-1.87,0.55c-0.19,0-0.34,0-0.45,0c-0.11,0-0.29-0.01-0.51-0.03V112.97z"/>
		<path class="st0" d="M156.78,111.41h-2.27v-10.95h2.27V111.41z"/>
		<path class="st0" d="M165.28,103.78c0.53,0.44,0.79,1.17,0.79,2.18v5.45h-2.17v-4.93c0-0.43-0.06-0.75-0.17-0.98    c-0.21-0.42-0.6-0.62-1.18-0.62c-0.71,0-1.2,0.3-1.47,0.91c-0.14,0.32-0.21,0.73-0.21,1.23v4.38h-2.12v-8.08h2.05v1.18    c0.27-0.42,0.53-0.72,0.77-0.9c0.43-0.33,0.98-0.49,1.65-0.49C164.07,103.12,164.75,103.34,165.28,103.78z"/>
		<path class="st0" d="M174.57,103.78c0.53,0.44,0.79,1.17,0.79,2.18v5.45h-2.17v-4.93c0-0.43-0.06-0.75-0.17-0.98    c-0.21-0.42-0.6-0.62-1.18-0.62c-0.71,0-1.2,0.3-1.47,0.91c-0.14,0.32-0.21,0.73-0.21,1.23v4.38h-2.12v-8.08h2.05v1.18    c0.27-0.42,0.53-0.72,0.77-0.9c0.43-0.33,0.98-0.49,1.65-0.49C173.36,103.12,174.04,103.34,174.57,103.78z"/>
		<path class="st0" d="M184.09,110.42c-0.68,0.84-1.72,1.27-3.11,1.27s-2.43-0.42-3.11-1.27c-0.68-0.84-1.03-1.86-1.03-3.05    c0-1.17,0.34-2.18,1.03-3.04c0.68-0.86,1.72-1.28,3.11-1.28s2.43,0.43,3.11,1.28s1.02,1.87,1.02,3.04    C185.12,108.57,184.77,109.58,184.09,110.42z M182.4,109.25c0.33-0.44,0.5-1.07,0.5-1.88s-0.17-1.44-0.5-1.87    c-0.33-0.44-0.81-0.66-1.43-0.66s-1.1,0.22-1.43,0.66c-0.33,0.44-0.5,1.06-0.5,1.87s0.17,1.44,0.5,1.88    c0.33,0.44,0.81,0.66,1.43,0.66S182.06,109.69,182.4,109.25z"/>
		<path class="st0" d="M191.62,103.32h2.27l-2.92,8.1h-2.23l-2.9-8.1h2.38l1.69,5.97L191.62,103.32z"/>
		<path class="st0" d="M198.3,106.49c0.39-0.05,0.68-0.11,0.85-0.19c0.3-0.13,0.46-0.33,0.46-0.6c0-0.33-0.12-0.56-0.35-0.69    c-0.23-0.13-0.58-0.19-1.03-0.19c-0.51,0-0.87,0.12-1.08,0.37c-0.15,0.18-0.25,0.43-0.3,0.74h-2.04c0.04-0.71,0.24-1.29,0.6-1.75    c0.56-0.71,1.53-1.07,2.9-1.07c0.89,0,1.68,0.18,2.37,0.53c0.69,0.35,1.04,1.02,1.04,1.99v3.71c0,0.26,0,0.57,0.01,0.94    c0.02,0.28,0.06,0.47,0.13,0.56s0.17,0.18,0.31,0.25v0.31h-2.3c-0.06-0.16-0.11-0.32-0.13-0.46c-0.02-0.14-0.04-0.31-0.06-0.49    c-0.29,0.32-0.63,0.59-1.02,0.81c-0.46,0.26-0.98,0.39-1.55,0.39c-0.74,0-1.35-0.21-1.83-0.63c-0.48-0.42-0.72-1.01-0.72-1.78    c0-1,0.39-1.72,1.16-2.16c0.42-0.24,1.05-0.42,1.87-0.52L198.3,106.49z M199.59,107.48c-0.14,0.08-0.27,0.15-0.41,0.2    c-0.14,0.05-0.33,0.1-0.57,0.15l-0.48,0.09c-0.45,0.08-0.78,0.18-0.97,0.29c-0.33,0.19-0.5,0.49-0.5,0.9    c0,0.36,0.1,0.62,0.31,0.78c0.2,0.16,0.45,0.24,0.74,0.24c0.46,0,0.89-0.13,1.28-0.4c0.39-0.27,0.59-0.75,0.61-1.46V107.48z"/>
		<path class="st0" d="M202.72,104.9v-1.51h1.13v-2.26h2.09v2.26h1.31v1.51h-1.31v4.28c0,0.33,0.04,0.54,0.13,0.62    c0.08,0.08,0.34,0.12,0.77,0.12c0.06,0,0.13,0,0.2,0c0.07,0,0.14-0.01,0.21-0.01v1.58l-1,0.04c-1,0.03-1.68-0.14-2.05-0.52    c-0.24-0.24-0.36-0.62-0.36-1.12v-4.98H202.72z"/>
		<path class="st0" d="M210.8,102.35h-2.15v-1.95h2.15V102.35z M208.65,103.32h2.15v8.1h-2.15V103.32z"/>
		<path class="st0" d="M219.6,110.42c-0.68,0.84-1.72,1.27-3.11,1.27s-2.43-0.42-3.11-1.27c-0.68-0.84-1.03-1.86-1.03-3.05    c0-1.17,0.34-2.18,1.03-3.04c0.68-0.86,1.72-1.28,3.11-1.28s2.43,0.43,3.11,1.28s1.02,1.87,1.02,3.04    C220.62,108.57,220.28,109.58,219.6,110.42z M217.91,109.25c0.33-0.44,0.5-1.07,0.5-1.88s-0.17-1.44-0.5-1.87    c-0.33-0.44-0.81-0.66-1.43-0.66s-1.1,0.22-1.43,0.66c-0.33,0.44-0.5,1.06-0.5,1.87s0.17,1.44,0.5,1.88    c0.33,0.44,0.81,0.66,1.43,0.66S217.57,109.69,217.91,109.25z"/>
		<path class="st0" d="M228.67,103.78c0.53,0.44,0.79,1.17,0.79,2.18v5.45h-2.17v-4.93c0-0.43-0.06-0.75-0.17-0.98    c-0.21-0.42-0.6-0.62-1.18-0.62c-0.71,0-1.2,0.3-1.47,0.91c-0.14,0.32-0.21,0.73-0.21,1.23v4.38h-2.12v-8.08h2.05v1.18    c0.27-0.42,0.53-0.72,0.77-0.9c0.43-0.33,0.98-0.49,1.65-0.49C227.46,103.12,228.14,103.34,228.67,103.78z"/>
		<path class="st0" d="M264.51,108.83c0.04,0.38,0.14,0.64,0.29,0.8c0.26,0.28,0.75,0.42,1.46,0.42c0.42,0,0.75-0.06,1-0.19    c0.25-0.12,0.37-0.31,0.37-0.56c0-0.24-0.1-0.42-0.3-0.54s-0.94-0.34-2.21-0.64c-0.92-0.23-1.57-0.51-1.94-0.85    c-0.38-0.34-0.56-0.82-0.56-1.46c0-0.75,0.29-1.39,0.88-1.93c0.59-0.54,1.42-0.81,2.48-0.81c1.01,0,1.84,0.2,2.48,0.61    c0.64,0.4,1,1.1,1.1,2.09h-2.12c-0.03-0.27-0.11-0.49-0.23-0.65c-0.23-0.29-0.63-0.43-1.19-0.43c-0.46,0-0.79,0.07-0.99,0.22    c-0.2,0.14-0.29,0.31-0.29,0.51c0,0.24,0.1,0.42,0.31,0.53c0.21,0.11,0.95,0.31,2.21,0.59c0.84,0.2,1.48,0.5,1.9,0.9    c0.42,0.41,0.62,0.91,0.62,1.52c0,0.8-0.3,1.46-0.9,1.96c-0.6,0.51-1.52,0.76-2.77,0.76c-1.28,0-2.22-0.27-2.83-0.81    c-0.61-0.54-0.91-1.22-0.91-2.05H264.51z"/>
		<path class="st0" d="M236.29,100.47h2.29v8.98h5.47v1.97h-7.76V100.47z"/>
		<path class="st0" d="M248.62,106.49c0.39-0.05,0.68-0.11,0.85-0.19c0.3-0.13,0.46-0.33,0.46-0.6c0-0.33-0.12-0.56-0.35-0.69    c-0.23-0.13-0.58-0.19-1.03-0.19c-0.51,0-0.87,0.12-1.08,0.37c-0.15,0.18-0.25,0.43-0.3,0.74h-2.04c0.04-0.71,0.24-1.29,0.6-1.75    c0.56-0.71,1.53-1.07,2.9-1.07c0.89,0,1.68,0.18,2.37,0.53c0.69,0.35,1.04,1.02,1.04,1.99v3.71c0,0.26,0,0.57,0.01,0.94    c0.02,0.28,0.06,0.47,0.13,0.56s0.17,0.18,0.31,0.25v0.31h-2.3c-0.06-0.16-0.11-0.32-0.13-0.46c-0.02-0.14-0.04-0.31-0.06-0.49    c-0.29,0.32-0.63,0.59-1.02,0.81c-0.46,0.26-0.98,0.39-1.55,0.39c-0.74,0-1.35-0.21-1.83-0.63c-0.48-0.42-0.72-1.01-0.72-1.78    c0-1,0.39-1.72,1.16-2.16c0.42-0.24,1.05-0.42,1.87-0.52L248.62,106.49z M249.92,107.48c-0.14,0.08-0.27,0.15-0.41,0.2    c-0.14,0.05-0.33,0.1-0.57,0.15l-0.48,0.09c-0.45,0.08-0.78,0.18-0.97,0.29c-0.33,0.19-0.5,0.49-0.5,0.9    c0,0.36,0.1,0.62,0.31,0.78c0.2,0.16,0.45,0.24,0.74,0.24c0.46,0,0.89-0.13,1.28-0.4c0.39-0.27,0.59-0.75,0.61-1.46V107.48z"/>
		<path class="st0" d="M260.79,104.29c0.61,0.77,0.91,1.76,0.91,2.97c0,1.26-0.3,2.3-0.9,3.13c-0.6,0.83-1.43,1.24-2.5,1.24    c-0.67,0-1.21-0.13-1.62-0.4c-0.24-0.16-0.51-0.44-0.79-0.83v1.02h-2.09v-10.94h2.12v3.89c0.27-0.38,0.57-0.66,0.89-0.86    c0.38-0.25,0.87-0.37,1.47-0.37C259.35,103.14,260.18,103.52,260.79,104.29z M259.02,109.22c0.3-0.44,0.46-1.02,0.46-1.74    c0-0.57-0.08-1.05-0.23-1.43c-0.28-0.71-0.81-1.07-1.57-1.07c-0.77,0-1.31,0.35-1.6,1.05c-0.15,0.37-0.22,0.85-0.22,1.44    c0,0.69,0.15,1.27,0.46,1.72c0.31,0.46,0.78,0.68,1.42,0.68C258.29,109.88,258.72,109.66,259.02,109.22z"/>
	</g>
</g>
<polygon class="st0" points="127.27,0.06 127.27,10.86 144.77,10.86 144.77,58.46 157.62,58.46 157.62,10.86 175.12,10.86   175.12,0.06 "/>
<rect x="191.46" y="0.06" class="st0" width="12.84" height="58.4"/>
<polygon class="st0" points="228.5,0.06 228.5,58.46 269.8,58.46 269.8,47.67 241.34,47.67 241.34,0.06 "/>
<polygon class="st0" points="65.05,58.4 77.08,58.4 77.08,19.3 77.24,19.3 101.53,58.4 114.37,58.4 114.37,0 102.35,0 102.35,39.18   102.19,39.18 77.81,0 65.05,0 "/>
<path class="st0" d="M49.92,0H37.08v36.32c0,8.67-2.95,12.68-12.11,12.68c-10.39,0-12.02-6.3-12.02-12.68V0H0.1v36.32  c0,15.87,9.16,23.48,24.87,23.48c15.62,0,24.95-7.69,24.95-23.48V0z"/>
<path class="st1" d="M289.78,58.46c2.97,0,5.4-2.52,5.4-5.49c0-3.06-2.43-5.49-5.4-5.49c-3.06,0-5.49,2.43-5.49,5.49  C284.3,55.95,286.73,58.46,289.78,58.46 M289.78,32.38c2.97,0,5.4-2.52,5.4-5.49c0-3.06-2.43-5.49-5.4-5.49  c-3.06,0-5.49,2.43-5.49,5.49C284.3,29.86,286.73,32.38,289.78,32.38"/>
<path class="st1" d="M5.76,83.46l2.46-2.06l0.84-0.77c0.22-0.23,0.41-0.49,0.55-0.77c0.17-0.36,0.33-0.74,0.45-1.12l0.62-1.83h-0.07  c-0.25,0.61-0.64,1.16-1.13,1.61C9,78.91,8.5,79.29,7.99,79.64c-0.57,0.39-1.11,0.82-1.62,1.29c-0.61,0.58-1.1,1.27-1.46,2.03v-0.07  l0.87-2.83l0.51-2.03c0.13-0.53,0.32-1.04,0.58-1.52C7.16,76.03,7.54,75.62,8,75.3v-0.07c-1.17,0.31-2.18,1.04-2.84,2.06  c-0.73,1.06-1.11,2.32-1.09,3.6v4.49C4.51,84.65,5.08,83.99,5.76,83.46z M8.79,77.96c0.58-0.6,1.13-1.23,1.64-1.89l1.42-1.82  c0.45-0.58,0.96-1.1,1.52-1.58L13.3,72.6c-0.42,0.36-0.92,0.62-1.46,0.75c-0.64,0.2-1.26,0.48-1.83,0.84  c-0.74,0.48-1.37,1.1-1.86,1.83c-0.72,1.13-1.23,2.38-1.52,3.69C7.42,79.22,8.14,78.63,8.79,77.96z M1.59,94.77  c0.44,0.66,0.92,1.29,1.44,1.89c0.59,0.71,1.12,1.48,1.57,2.28h0.07c-0.05-0.34-0.08-0.67-0.08-1.01v-0.91  c0.05-0.58,0.17-1.15,0.36-1.7l0.76-2.63l0.69-2.92c0.19-0.86,0.25-1.75,0.17-2.63H6.48c-0.14,0.58-0.37,1.13-0.68,1.64l-1.01,1.67  c-0.35,0.6-0.66,1.22-0.91,1.86c-0.26,0.69-0.39,1.42-0.38,2.15c0.01,0.36,0.06,0.71,0.15,1.05c0.07,0.26,0.12,0.53,0.15,0.81H3.74  c-0.16-0.92-0.4-1.82-0.72-2.69l-0.94-2.38l-0.79-2c-0.18-0.47-0.29-0.97-0.31-1.48l0.04-1.01c0.04-0.24,0.04-0.58,0.04-0.96H1.01  c-0.2,0.55-0.37,1.1-0.51,1.67c-0.19,0.67-0.3,1.36-0.31,2.06c-0.03,1.04,0.09,2.08,0.37,3.09C0.8,93.37,1.15,94.1,1.59,94.77z   M13.27,112.18c0.23,0.02,0.47,0.03,0.7,0.03c0.32,0,0.64-0.02,0.96-0.06l1.15-0.19l1.83-0.42l2.99-0.74l-2.12-0.61  c-0.67-0.23-1.29-0.61-1.8-1.11l-2.18-1.99l-1.74-1.55l-1.25-1.13l-0.06,0.07c0.1,0.15,0.89,1.74,0.89,1.74l0.18,0.26l0.63,1.15  l0.24,0.46c0.26,0.49,0.63,0.92,1.08,1.24c0.79,0.64,1.71,1.1,2.7,1.34v0.07l-2.4-0.38c-0.29-0.05-0.62-0.07-0.94-0.1l-1.15-0.1  l-0.91-0.14l-0.89-0.1l-0.47-0.05c-0.54-0.05-1.08-0.15-1.61-0.29c-0.51-0.13-1-0.34-1.45-0.61c-0.56-0.34-1.08-0.74-1.55-1.19  l-0.07,0.07c0.25,0.43,0.54,0.84,0.87,1.22c0.4,0.47,0.85,0.9,1.33,1.28c0.58,0.46,1.22,0.83,1.9,1.11  c0.81,0.32,1.66,0.54,2.53,0.65L13.27,112.18z M3.26,92.07h0.08c0.03-0.34,0.1-0.68,0.19-1.01c0.12-0.38,0.28-0.74,0.48-1.09  c0.3-0.52,0.63-1.03,0.98-1.52c0.43-0.6,1-1.41,1.72-2.44c0.45-0.7,0.79-1.45,1.01-2.25l0.51-1.86H8.17  C8.09,82.09,8,82.27,7.88,82.44c-0.13,0.18-0.27,0.34-0.41,0.51c-0.21,0.24-0.43,0.46-0.67,0.67l-1.11,1.01  c-0.7,0.58-1.26,1.3-1.65,2.12c-0.27,0.69-0.48,1.4-0.63,2.12H3.35c0-0.34,0.05-0.67,0.06-1.01V86.6c0-0.64-0.04-1.39-0.13-2.25  c-0.09-0.86-0.12-1.97-0.12-3.34c0-0.42,0.08-0.84,0.25-1.22c0.17-0.38,0.32-0.75,0.44-1.09H3.81c-0.8,0.98-1.43,2.09-1.85,3.28  c-0.32,0.96-0.5,1.97-0.51,2.98c0.01,1.15,0.24,2.29,0.67,3.35C2.59,89.53,2.97,90.79,3.26,92.07z M9.95,108.71l4.08,0.93  c-0.52-0.57-0.98-1.18-1.37-1.84c-0.34-0.56-0.62-1.15-0.84-1.77c-0.26-0.7-0.62-1.63-1.09-2.79c-0.12-0.35-0.25-0.68-0.42-1.01  c-0.15-0.3-0.32-0.61-0.51-0.93l-0.71-1.1l-1.06-1.52l-0.07,0.07c0.13,0.43,0.3,1.2,0.55,2.31l0.67,3.15  c0.13,0.73,0.42,1.43,0.87,2.03c0.51,0.7,1.1,1.33,1.76,1.89l-0.07,0.07c-0.57-0.25-1.09-0.59-1.55-1.01  c-0.71-0.59-1.49-1.08-2.32-1.48c-1.32-0.64-2.61-1.35-3.84-2.15c-0.93-0.62-1.66-1.5-2.1-2.53l-0.07,0.06  c0.24,1.01,0.64,1.98,1.19,2.87c0.52,0.84,1.17,1.6,1.91,2.25c0.72,0.64,1.53,1.18,2.39,1.61C8.19,108.22,9.06,108.52,9.95,108.71  L9.95,108.71z M3.95,102.09l4.76,3.15l-0.54-1.22c-0.16-0.42-0.28-0.84-0.36-1.28l-0.22-1.57l-0.22-2.09l-0.44-3.28  c-0.15-0.86-0.38-1.7-0.69-2.51H6.18c0.01,0.62-0.02,1.24-0.09,1.85c-0.06,0.48-0.15,0.95-0.26,1.42l-0.25,1.19  c-0.07,0.41-0.1,0.83-0.1,1.25c0.03,0.63,0.17,1.25,0.42,1.83c0.23,0.63,0.49,1.24,0.79,1.83l-0.06,0.07  c-0.62-1.02-1.35-1.98-2.15-2.86l-1.92-2.06C2,97.25,1.51,96.64,1.07,95.99c-0.44-0.68-0.71-1.45-0.8-2.25  c-0.05,0.2-0.09,0.41-0.12,0.61c-0.03,0.2-0.04,0.4-0.04,0.61c0,0.75,0.13,1.5,0.38,2.21c0.25,0.73,0.57,1.43,0.96,2.09  c0.36,0.61,0.78,1.19,1.25,1.71C3.06,101.39,3.48,101.77,3.95,102.09z M43,74.23l1.42,1.83c0.51,0.66,1.06,1.29,1.64,1.89  c0.65,0.67,1.38,1.27,2.16,1.78c-0.29-1.31-0.8-2.56-1.52-3.69c-0.49-0.73-1.13-1.35-1.87-1.83c-0.57-0.36-1.19-0.65-1.83-0.86  c-0.53-0.15-1.03-0.41-1.45-0.77l-0.07,0.07c0.56,0.48,1.07,1.01,1.51,1.59L43,74.23z M47.21,108.97c-0.45,0.27-0.94,0.48-1.45,0.61  c-0.53,0.13-1.07,0.23-1.62,0.29l-0.46,0.05l-0.89,0.1l-0.9,0.14c-0.3,0.05-0.77,0.08-1.15,0.1l-0.94,0.1l-1.01,0.15l-1.38,0.22  v-0.06c0.98-0.25,1.89-0.71,2.67-1.35c0.45-0.32,0.81-0.75,1.06-1.24l0.24-0.46l0.63-1.14c0.05-0.09,0.11-0.18,0.18-0.26l0.89-1.75  L43,104.41c-0.41,0.39-0.82,0.77-1.25,1.14l-1.74,1.54l-2.18,1.98c-0.5,0.5-1.11,0.89-1.77,1.13l-2.12,0.61l2.99,0.74l1.82,0.42  l1.17,0.19c0.32,0.05,0.64,0.07,0.96,0.07l0.71-0.03l0.61-0.07c0.87-0.11,1.72-0.33,2.53-0.65c0.68-0.28,1.32-0.65,1.9-1.11  c0.49-0.39,0.95-0.82,1.36-1.3c0.33-0.38,0.62-0.79,0.87-1.22l-0.1-0.04C48.29,108.25,47.76,108.64,47.21,108.97z M50.8,103.55  c-1.23,0.8-2.52,1.52-3.84,2.15c-0.83,0.39-1.62,0.89-2.32,1.48c-0.46,0.42-0.98,0.76-1.55,1.01l-0.07-0.07  c0.66-0.56,1.25-1.2,1.76-1.89c0.44-0.6,0.74-1.29,0.87-2.03c0.22-0.98,0.44-2.03,0.67-3.14l0.55-2.31L46.8,98.7l-1.06,1.52  l-0.71,1.09c-0.2,0.32-0.36,0.63-0.52,0.94c-0.16,0.33-0.3,0.67-0.42,1.01l-1.1,2.8c-0.21,0.61-0.49,1.2-0.83,1.75  c-0.39,0.65-0.85,1.26-1.37,1.81l1.4-0.29l2.68-0.59c0.9-0.19,1.77-0.51,2.59-0.93c0.86-0.43,1.67-0.97,2.39-1.6  c0.74-0.65,1.38-1.41,1.9-2.24c0.55-0.89,0.96-1.87,1.2-2.89l-0.07-0.07C52.46,102.04,51.73,102.92,50.8,103.55L50.8,103.55z   M52.78,91.24c-0.34,0.73-0.66,1.52-0.96,2.38c-0.32,0.88-0.56,1.78-0.72,2.7h-0.06c0.03-0.27,0.08-0.54,0.15-0.81  c0.09-0.35,0.14-0.7,0.15-1.06c0.01-0.74-0.12-1.47-0.38-2.15c-0.25-0.64-0.55-1.27-0.91-1.86l-1.01-1.67  c-0.31-0.51-0.54-1.06-0.68-1.64h-0.07c-0.08,0.88-0.02,1.77,0.17,2.63c0.2,0.99,0.43,1.96,0.69,2.92c0.27,0.96,0.52,1.84,0.76,2.63  c0.19,0.55,0.32,1.12,0.36,1.7v0.9c0,0.34-0.03,0.68-0.08,1.01h0.05c0.45-0.81,0.97-1.57,1.57-2.28c0.52-0.6,1-1.23,1.44-1.89  c0.45-0.67,0.8-1.39,1.05-2.15c0.29-1.01,0.42-2.06,0.38-3.12c-0.01-0.7-0.12-1.39-0.31-2.06c-0.13-0.57-0.3-1.13-0.51-1.67h-0.08  l0.04,0.96c0.04,0.25,0.04,0.6,0.04,1.01c-0.03,0.51-0.13,1.01-0.31,1.48L52.78,91.24L52.78,91.24z M50.83,86.74  c-0.39-0.82-0.95-1.54-1.65-2.12l-1.11-1.01l-0.66-0.68c-0.15-0.16-0.28-0.33-0.41-0.51c-0.12-0.18-0.22-0.37-0.29-0.57h-0.07  l0.51,1.86c0.23,0.79,0.57,1.55,1.01,2.25l1.72,2.44c0.35,0.49,0.68,1,0.98,1.52c0.2,0.35,0.36,0.71,0.48,1.09  c0.09,0.33,0.15,0.67,0.19,1.01h0.08c0.28-1.28,0.66-2.54,1.12-3.76c0.43-1.07,0.65-2.22,0.66-3.37c-0.01-1.02-0.18-2.02-0.51-2.99  c-0.42-1.18-1.05-2.28-1.85-3.24h-0.07l0.44,1.09c0.17,0.38,0.26,0.8,0.25,1.22c0,1.37-0.04,2.49-0.12,3.34  c-0.08,0.85-0.12,1.6-0.12,2.25v1.25c0,0.32,0.04,0.66,0.06,1.01h-0.06c-0.15-0.72-0.35-1.42-0.61-2.1H50.83z M47.96,76.53  c0.25,0.48,0.45,0.99,0.58,1.52l0.51,2.03c0.19,0.77,0.48,1.71,0.87,2.83v0.07c-0.36-0.76-0.85-1.44-1.46-2.03  c-0.51-0.47-1.05-0.89-1.62-1.28c-0.52-0.35-1.01-0.72-1.49-1.12c-0.49-0.45-0.88-1.01-1.12-1.63h-0.07l0.62,1.82  c0.12,0.38,0.27,0.76,0.45,1.12c0.14,0.28,0.33,0.54,0.55,0.77l0.85,0.77c0.95,0.81,1.76,1.5,2.46,2.06  c0.67,0.54,1.23,1.2,1.67,1.94v-4.5c0.01-1.28-0.37-2.54-1.09-3.6c-0.65-1.02-1.66-1.75-2.83-2.06v0.07  C47.29,75.63,47.67,76.04,47.96,76.53L47.96,76.53z M40.52,113.5c-0.36-0.01-0.71-0.05-1.06-0.13l-1.19-0.22l-1.3-0.44l-1.77-0.64  l-2.74-0.93c-0.59-0.2-1.21-0.3-1.84-0.29c-0.63,0.01-1.26,0.08-1.87,0.22l-1.41,0.33c-0.27-0.08-0.71-0.19-1.35-0.33  c-0.61-0.14-1.23-0.21-1.86-0.22c-0.62,0-1.24,0.11-1.83,0.32l-2.74,0.96l-3.14,1.08c-0.69,0.21-1.4,0.32-2.12,0.31  c-0.3,0-0.6-0.02-0.9-0.06c-0.26-0.03-0.52-0.1-0.77-0.19l-0.94-0.32l-1.22-0.59l-0.06,0.06c0.68,0.66,1.44,1.24,2.25,1.73  c1.07,0.65,2.29,1,3.55,1.01c0.46,0,0.92-0.03,1.38-0.1c0.42-0.07,0.83-0.19,1.22-0.35c0.41-0.17,0.86-0.38,1.35-0.64l1.77-1.01  l1.82-1.12c0.52-0.28,1.11-0.43,1.7-0.42c0.26,0,0.52,0.05,0.77,0.13c-0.84,0.47-1.82,1.05-2.91,1.72  c-1.18,0.73-2.24,1.62-3.18,2.64l1.09,0.96c0.96-1.13,2.02-2.17,3.18-3.1c0.88-0.77,1.88-1.39,2.96-1.83  c1.08,0.45,2.07,1.07,2.96,1.83c1.17,0.92,2.24,1.96,3.2,3.09l1.09-0.96c-0.95-1.03-2.03-1.91-3.23-2.63  c-1.11-0.68-2.1-1.24-2.96-1.69c0.27-0.07,0.56-0.12,0.84-0.13c0.6-0.01,1.18,0.13,1.71,0.42c0.5,0.28,1.11,0.66,1.84,1.12  l1.67,0.99c0.42,0.25,0.86,0.47,1.32,0.64c0.39,0.14,0.79,0.26,1.2,0.35c0.42,0.08,0.84,0.13,1.26,0.13h0.25  c1.01-0.02,2-0.24,2.93-0.64c1.11-0.47,2.09-1.2,2.86-2.12v-0.09c-0.69,0.33-1.4,0.62-2.13,0.87c-0.54,0.17-1.1,0.26-1.67,0.26  L40.52,113.5z M54.73,94.86v-0.2c0-0.1-0.01-0.2-0.03-0.3l-0.12-0.61c-0.09,0.8-0.36,1.57-0.8,2.24c-0.44,0.64-0.94,1.26-1.47,1.83  l-0.1,0.11l-1.82,1.95c-0.79,0.87-1.5,1.81-2.11,2.81c0.3-0.59,0.55-1.2,0.75-1.83c0.22-0.59,0.35-1.2,0.38-1.83  c0-0.42-0.03-0.84-0.1-1.26c-0.07-0.36-0.14-0.76-0.23-1.19c-0.12-0.43-0.19-0.94-0.25-1.44c-0.07-0.61-0.11-1.23-0.11-1.85h-0.05  v0.01h-0.07c-0.31,0.82-0.54,1.67-0.69,2.53l-0.44,3.27l-0.22,2.09l-0.22,1.57c-0.08,0.43-0.19,0.85-0.34,1.26  c-0.13,0.33-0.28,0.68-0.46,1.01c-0.03,0.06-0.07,0.12-0.1,0.18h0.03l0,0l1.6-1.06l3.21-2.1c0.46-0.32,0.88-0.7,1.25-1.12  c0.47-0.52,0.88-1.09,1.22-1.7c0.23-0.41,0.43-0.83,0.61-1.26l0.32-0.83c0.25-0.71,0.38-1.46,0.38-2.21  c-0.03-0.02-0.03-0.05-0.03-0.09L54.73,94.86z M36.06,75.93c0.12,0.05,0.24,0.12,0.34,0.19c0.08,0.08,0.15,0.16,0.21,0.25  c0.05,0.08,0.13,0.13,0.22,0.13c0.12,0,0.19-0.05,0.19-0.13s0-0.12-0.03-0.1c-0.03,0.02-0.04,0-0.04-0.1  c0.01-0.14-0.03-0.28-0.12-0.38c-0.14-0.16-0.37-0.21-0.56-0.13c-0.03-0.03-0.07-0.06-0.12-0.06h-0.1c-0.12,0-0.19,0.04-0.19,0.13  s0.07,0.15,0.19,0.19V75.93z M29.24,74.37h0.13c0.25-0.09,0.51-0.14,0.77-0.16h0.9c0.15,0.01,0.29-0.05,0.39-0.16  c0.07-0.09,0.14-0.19,0.19-0.29c-0.19-0.25-0.47-0.41-0.77-0.46c-0.21-0.04-0.43-0.06-0.64-0.07c-0.27,0.05-0.53,0.13-0.77,0.24  l-0.77,0.3c-0.22-0.05-0.34,0-0.38,0.14c0.11,0.11,0.23,0.21,0.35,0.3C28.81,74.33,29.02,74.39,29.24,74.37L29.24,74.37z   M27.3,109.59c10.71,0,19.39-8.67,19.39-19.38c0-10.71-8.67-19.39-19.38-19.39S7.92,79.5,7.92,90.2c0,0,0,0,0,0.01  C7.93,100.91,16.6,109.58,27.3,109.59z M8.91,90.7h2.95c0.04,1.29,0.24,2.58,0.61,3.82c-0.09-0.02-0.17-0.08-0.22-0.16l-0.09-0.09  l-0.32-0.46l-0.54,0.2c0,0.3-0.1,0.41-0.32,0.32c-0.06-0.08-0.16-0.12-0.26-0.13c-0.32-0.02-0.6,0.22-0.62,0.54c0,0,0,0,0,0  C10.05,95,10.02,95.25,10,95.5l0.46,1.17c0.09,0.13,0.22,0.15,0.39,0.07c0.13,0.16,0.26,0.3,0.41,0.44  c0.09,0.09,0.21,0.13,0.33,0.13c0.1,0.01,0.19-0.05,0.2-0.15c0-0.02,0-0.03,0-0.05h0.07c0.09,0.09,0.18,0.19,0.27,0.29  c0.1,0.11,0.21,0.21,0.33,0.29v-0.06c0.14,0.15,0.34,0.23,0.55,0.23c0.06,0.27,0.19,0.51,0.38,0.71c0.13,0.15,0.31,0.25,0.51,0.26  c0.1-0.01,0.19-0.05,0.26-0.13c0.07,0.23,0.18,0.46,0.32,0.65c0.11,0.06,0.22,0.12,0.32,0.19c0.09,0.06,0.18,0.12,0.26,0.2h0.13  c0.06,0.19,0.17,0.37,0.32,0.51c0.12,0.12,0.25,0.23,0.39,0.32h-0.01h0.05l0.13,0.15l-2.08,2.08c-3.12-3.27-4.92-7.58-5.06-12.11  L8.91,90.7z M23.09,85.26c-0.05-0.04-0.11-0.07-0.17-0.1l-0.2-0.2c1.13-0.99,2.55-1.58,4.05-1.69v2.05  c-0.03-0.02-0.05-0.04-0.09-0.05c-0.02-0.02-0.04-0.04-0.05-0.07c-0.05-0.03-0.1-0.04-0.16-0.04c-0.02,0-0.05,0-0.07,0  c-0.05-0.01-0.09-0.01-0.14,0c-0.05,0.02-0.1,0.03-0.15,0.03c-0.03,0.01-0.05,0.01-0.08,0c-0.06-0.05-0.09-0.14-0.09-0.29  c-0.18,0.09-0.27,0.17-0.29,0.25l-0.1,0.46c-0.04,0.17-0.16,0.3-0.33,0.35c-0.14,0.05-0.28,0.13-0.39,0.23l-0.2-0.13H24.3  c-0.06-0.06-0.12-0.12-0.2-0.16c-0.05-0.03-0.09-0.06-0.13-0.1c-0.04-0.04-0.06-0.04-0.06,0c-0.09-0.01-0.16,0.05-0.17,0.14  c0,0,0,0,0,0l-0.19-0.19h0.05v-0.15C23.45,85.48,23.28,85.36,23.09,85.26L23.09,85.26z M22.03,84.25l-1.98-1.98  c1.85-1.69,4.23-2.68,6.74-2.8v2.8c-1.76,0.12-3.42,0.82-4.74,2L22.03,84.25z M23.17,93.62c0.1-0.1,0.05-0.29,0.1-0.42l-0.22,0.2  c0.16-0.15,0.29-0.32,0.38-0.51c0.05-0.13,0.12-0.24,0.19-0.35l0.23,0.41l-1.81,1.81c-0.73-0.83-1.26-1.83-1.52-2.91  c0.16,0.02,0.31,0.06,0.45,0.13c0.14,0.11,0.28,0.24,0.41,0.37c0.09,0,0.18-0.02,0.26-0.07l0.25,0.2c-0.01,0.11,0.01,0.22,0.07,0.32  c0,0.05,0.07,0.1,0.2,0.16c0.11,0.05,0.2,0.13,0.26,0.22l0.13-0.06c0-0.09-0.01-0.17-0.03-0.26c0-0.13,0-0.19,0.03-0.19l0.13,0.46  l0.13,0.51c0.11,0.06,0.24,0.05,0.35-0.01L23.17,93.62z M27.01,95.65c0.1,0.1,0.15,0.18,0.15,0.22c0,0.13-0.17,0.19-0.51,0.19  c-0.13,0-0.22,0.13-0.26,0.37l-0.13,0.61h-0.1v0.03c-1.27-0.21-2.46-0.76-3.43-1.6l1.75-1.75c0.67,0.64,1.54,1.03,2.46,1.11  c-0.01,0.1,0.01,0.19,0.06,0.27c-0.08,0.08-0.13,0.2-0.13,0.32C26.86,95.47,26.91,95.55,27.01,95.65L27.01,95.65z M18.4,95.77  c-0.02-0.37-0.07-0.74-0.13-1.1c-0.05-0.2-0.12-0.39-0.2-0.58c-0.02-0.3-0.09-0.59-0.2-0.87c-0.17-0.3-0.37-0.57-0.61-0.81v-0.37  c-0.03-0.13-0.07-0.26-0.13-0.37v-0.07c-0.01-0.07,0.03-0.14,0.1-0.17l0.68-0.23c-0.02-0.2,0.01-0.4,0.07-0.59l0.47,0.08  c0.13,0,0.2-0.09,0.2-0.27c-0.03-0.14-0.07-0.27-0.13-0.4c-0.07-0.15-0.12-0.3-0.13-0.47c0-0.09,0.07-0.17,0.19-0.23  c0.12-0.06,0.25-0.1,0.38-0.1c0.18-0.01,0.35,0.07,0.45,0.22c0.09,0.15,0.13,0.33,0.13,0.51c0,0.12-0.01,0.23-0.03,0.35  c-0.02,0.09-0.03,0.19-0.04,0.28l0.13,0.07c-0.09,0.43-0.26,0.64-0.51,0.64c-0.12-0.01-0.22-0.08-0.27-0.19  c-0.04-0.09-0.12-0.15-0.22-0.16c-0.04,0-0.06,0-0.06,0.07c0,0.09,0.02,0.18,0.06,0.26c0.05,0.1,0.07,0.21,0.07,0.32  c0,0.3-0.14,0.41-0.41,0.32c-0.09,0.16,0,0.24,0.26,0.24c0.09,0.26,0.18,0.37,0.27,0.33c0.07-0.14,0.12-0.29,0.13-0.44  c0.03-0.17,0.07-0.34,0.13-0.51l0.07,0.07l0.27-0.07c0,0.03,0,0.06,0,0.1h0.08c0.26,1.43,0.91,2.75,1.88,3.83l-2.75,2.73  c-0.12-0.11-0.18-0.27-0.15-0.43c0.05-0.26,0.32-0.43,0.35-0.7l0.07-0.51c-0.2-0.23-0.36-0.49-0.47-0.77L18.4,95.77z M16.83,91.72  c0.04,0.08,0.07,0.16,0.07,0.25c0,0.13-0.04,0.19-0.13,0.16h-0.05c-0.09-0.48-0.15-0.97-0.17-1.46h0.56c0,0.09-0.02,0.18-0.06,0.26  c-0.05,0.09-0.1,0.18-0.16,0.26c-0.06,0.07-0.1,0.16-0.1,0.25c0,0.1,0.02,0.2,0.07,0.29L16.83,91.72z M16.55,89.69  c0.13-2.5,1.13-4.87,2.83-6.71l2,1.98l-0.05,0.07c-0.12,0.03-0.23,0.07-0.34,0.12l-0.28,0.38c-0.22,0.08-0.42,0.19-0.61,0.32  c-0.19,0.15-0.35,0.32-0.51,0.51l-0.51,0.23c-0.09,0.03-0.17,0.09-0.23,0.16c0.09,0.22,0.09,0.33,0,0.35l-0.65,0.16  c-0.05,0.01-0.09,0.03-0.13,0.07l-0.19,0.19c-0.04,0.07-0.06,0.15-0.07,0.23c0,0.08-0.03,0.16-0.07,0.22  c-0.13,0.09-0.23,0.2-0.32,0.32c-0.08,0.19-0.08,0.4,0,0.58l0.08,0.64h-0.03c0.03,0.06,0.04,0.13,0.06,0.2L16.55,89.69z   M22.05,96.15c0.98,0.87,2.16,1.47,3.44,1.77l-0.28,0.1c-0.2,0.05-0.36,0.21-0.39,0.42c-0.04,0.25-0.14,0.43-0.29,0.51  c-0.15,0.08-0.2,0.16-0.16,0.29c0.21,0.22,0.37,0.49,0.45,0.78c0.08,0.3,0.34,0.53,0.65,0.58l0.38,0.13  c0.14,0.01,0.27,0.06,0.38,0.14c0.11,0,0.22,0.03,0.33,0.05c-2.42-0.17-4.71-1.16-6.5-2.81L22.05,96.15z M19.38,81.6l-1.96-1.96  c2.55-2.4,5.89-3.78,9.39-3.9v2.77C24.04,78.63,21.41,79.72,19.38,81.6z M18.69,82.29c-1.88,2.03-2.97,4.67-3.08,7.43h-2.77  c0.12-3.5,1.5-6.84,3.9-9.39L18.69,82.29z M15.6,90.7c0.02,0.48,0.07,0.96,0.15,1.43c-0.04-0.06-0.07-0.13-0.11-0.19  c-0.15-0.2-0.28-0.31-0.38-0.31c-0.11-0.01-0.22,0.06-0.26,0.16c-0.04,0.11-0.11,0.21-0.2,0.29c-0.21,0.16-0.45,0.27-0.71,0.32  c-0.2,0.22-0.33,0.49-0.39,0.77c-0.05,0.08-0.03,0.19,0.03,0.26c0.07,0.09,0.03,0.17-0.1,0.25c0.09,0.17,0.1,0.28,0.07,0.32  c0.04,0.09,0.03,0.12-0.04,0.1c-0.06-0.02-0.12-0.01-0.16,0.03c-0.04,0.04-0.07,0.09-0.09,0.15c-0.35-1.17-0.54-2.37-0.58-3.59H15.6  z M26.8,108.6c-4.54-0.12-8.87-1.93-12.16-5.07l2.08-2.09c2.74,2.58,6.32,4.07,10.08,4.18V108.6z M26.8,104.67  c-3.48-0.12-6.8-1.49-9.35-3.86c0.16,0.08,0.33,0.13,0.51,0.14c0.18-0.01,0.35-0.06,0.51-0.14c0.2-0.08,0.39-0.17,0.58-0.27  c0.2,0.01,0.4-0.03,0.58-0.13c0.17,0.04,0.34,0.04,0.51,0c0.15-0.04,0.24-0.17,0.23-0.32c-0.01-0.15-0.1-0.28-0.23-0.35  c-0.15-0.1-0.23-0.2-0.23-0.29s-0.04-0.1-0.13-0.16c-0.15-0.14-0.29-0.3-0.42-0.47c2.03,1.87,4.67,2.97,7.43,3.08L26.8,104.67z   M27.31,97.48c-0.22,0.02-0.44-0.02-0.64-0.1c0-0.05-0.05-0.11-0.07-0.17c0.1-0.07,0.2-0.14,0.3-0.2c0.12-0.09,0.25-0.15,0.4-0.17  v-0.18l0.48-0.35c0.05-0.03,0.11-0.05,0.17-0.06c0.12-0.03,0.25-0.08,0.36-0.13c0.18,0.06,0.35,0.13,0.51,0.23  c0.16,0.1,0.33,0.17,0.51,0.22l0.07-0.25c0.09,0,0.21,0.09,0.38,0.25c0.12-0.01,0.23-0.05,0.32-0.13c0.04-0.1,0.04-0.22,0-0.32  c0.07,0.01,0.13,0.03,0.19,0.07c0.04,0,0.07,0.01,0.1,0.04c0.03,0.02,0.06,0.03,0.1,0.03h0.07c0.13-0.02,0.25-0.08,0.35-0.16  c0.11-0.08,0.23-0.16,0.35-0.23c0.03-0.03,0.08-0.04,0.11-0.01c0,0,0.01,0.01,0.01,0.01c0.05,0.07,0.08,0.17,0.07,0.26  c0,0.35-0.22,0.66-0.55,0.77c-0.3,0.15-0.62,0.28-0.94,0.38c-0.07,0.09-0.12,0.19-0.16,0.29c-0.06,0.15-0.14,0.22-0.22,0.22  c-0.27-0.01-0.53-0.05-0.8-0.11c-0.09-0.12-0.15-0.25-0.2-0.39c-0.16,0-0.31,0.03-0.47,0.07l-0.53,0.13c-0.09,0.02-0.18,0.02-0.27,0  L27.31,97.48z M30.1,95.35c0.02-0.19,0.15-0.35,0.32-0.42c0.16-0.06,0.33-0.1,0.51-0.1c0,0.13-0.12,0.25-0.35,0.38  c-0.13,0.08-0.27,0.15-0.42,0.19L30.1,95.35z M32.11,93.77c0.18,0.1,0.28,0.3,0.26,0.51c0.02,0.12-0.07,0.24-0.19,0.26  c-0.02,0-0.04,0-0.07,0c-0.13,0-0.24-0.15-0.32-0.46c-0.3-0.09-0.47-0.23-0.51-0.42c-0.04-0.19,0-0.3,0.07-0.35  c0.08-0.04,0.17-0.07,0.26-0.1c0.09,0,0.1,0.08,0.07,0.29L32.11,93.77z M38.34,82.94c0.05,0,0.1,0.03,0.13,0.07  c0.16,0,0.32,0.04,0.45,0.13c0.3,0.29,0.56,0.61,0.78,0.97c0.05,0,0.1,0.07,0.16,0.2c0.06,0.14,0.14,0.19,0.23,0.19  c0.12-0.01,0.23-0.05,0.33-0.11c0-0.06,0-0.12,0.04-0.18c0.79,1.73,1.23,3.61,1.3,5.51h-2.74c0-0.02,0-0.03,0-0.05  c0.02-0.25-0.04-0.5-0.15-0.72c-0.14-0.3-0.17-0.63-0.09-0.95c0.06-0.17,0.07-0.36,0.04-0.54c-0.08,0-0.16,0.03-0.23,0.09  c-0.07,0.09-0.13,0.18-0.17,0.29l-0.15,0.35v0.04c-0.02,0.04-0.04,0.08-0.05,0.12c-0.01,0.06-0.03,0.11-0.07,0.16l-0.13,0.51  c-0.03,0.17-0.03,0.34,0,0.51l0,0v0.2h-1.4c0.08-0.09,0.19-0.16,0.3-0.2h-0.05l0.37-0.19c-0.08-0.03-0.13-0.11-0.13-0.19  c0-0.13,0-0.2,0.07-0.22c0.07-0.02,0.16-0.08,0.37-0.15c0.14-0.19,0.26-0.39,0.34-0.6c0.24-0.39,0.41-0.83,0.51-1.28  c0-0.1-0.13-0.23-0.15-0.33c0-0.09,0.01-0.19,0.03-0.28c0-0.46,0.2-1.24-0.37-1.38c-0.05,0-0.07-0.07-0.07-0.19  c0.15-0.12,0.2-0.33,0.13-0.51h-0.4c0.02-0.08,0.05-0.16,0.1-0.23c0.06-0.09,0.09-0.19,0.1-0.29c0.01-0.09-0.05-0.18-0.15-0.19  c-0.02,0-0.03,0-0.05,0c-0.11,0-0.23,0.02-0.33,0.07c-0.06,0.04-0.13,0.06-0.2,0.07c-0.03,0.01-0.07,0.01-0.1,0l-0.09-0.13  c-0.02-0.24-0.12-0.47-0.29-0.65c-0.14-0.16-0.31-0.29-0.51-0.36c0.03-0.09,0.03-0.18,0-0.27l0.51-0.59l0.79,0.28  c-0.02,0.18,0.06,0.35,0.2,0.45c0.09,0.07,0.18,0.13,0.27,0.19c0.11,0.07,0.21,0.15,0.31,0.23v0.04  C38.24,82.9,38.3,82.94,38.34,82.94L38.34,82.94z M35.68,101.73c-0.04-0.04-0.1-0.07-0.16-0.07c-0.07,0-0.1-0.04-0.1-0.13  c0-0.09,0.07-0.17,0.2-0.25c0.15-0.12,0.26-0.27,0.32-0.45c0.07-0.13,0.11-0.27,0.12-0.42c0.01-0.07-0.03-0.14-0.1-0.16  c-0.09-0.04-0.16-0.09-0.23-0.16c-0.09-0.05-0.19-0.09-0.29-0.13c-0.12-0.05-0.24-0.12-0.35-0.2c-0.12-0.06-0.2-0.19-0.2-0.32  c0.02-0.11,0.05-0.22,0.1-0.32c0-0.05,0.05-0.12,0.07-0.17l0.15-0.13l1.49,1.49c0,0.17,0.1,0.27,0.3,0.3l0.16,0.16  c-0.52,0.49-1.08,0.93-1.67,1.34c0.03-0.06,0.06-0.12,0.11-0.17c0.02-0.02,0.05-0.04,0.08-0.05  C35.7,101.85,35.7,101.79,35.68,101.73L35.68,101.73z M34.78,94.63c-0.13-0.04-0.28-0.02-0.4,0.07c-0.19,0.05-0.33,0.2-0.39,0.38  c0,0.04-0.03,0.06-0.07,0.06c-0.09,0-0.18,0.03-0.26,0.07c-0.11,0.04-0.22,0.08-0.32,0.13c-0.13,0-0.19-0.05-0.19-0.13  c0-0.08,0.19-0.21,0.58-0.25c0.17-0.21,0.28-0.34,0.32-0.38c0.09-0.06,0.19-0.11,0.3-0.13c0.21-0.11,0.38-0.27,0.51-0.47  c0.1-0.12,0.18-0.26,0.24-0.41h0.06c0,0.2,0.09,0.31,0.27,0.31s0.25-0.15,0.34-0.45c0.17,0.07,0.36,0.11,0.54,0.13  c0.19,0.01,0.37-0.08,0.47-0.25h0.79c0,0.02,0,0.04,0,0.06v0.05c-0.45,1.42-1.18,2.74-2.16,3.86v-0.2c0,0-0.19-0.59-0.23-0.59  s-0.19,0.15-0.3,0.46l-0.24,0.58l-0.65,0.13c-0.19,0.04-0.38,0.07-0.58,0.07c-0.19-0.04-0.38-0.12-0.55-0.23  c-0.17-0.11-0.36-0.18-0.55-0.22c-0.18-0.06-0.36-0.1-0.55-0.13c-0.24-0.04-0.35-0.1-0.35-0.19c0-0.09,0.09-0.19,0.25-0.19  c0.17,0.02,0.34,0.05,0.51,0.1l0.77,0.19l0.71,0.19c0.12,0.04,0.25,0.08,0.38,0.1l0.39-0.13c0.01-0.13,0.06-0.25,0.13-0.35  c0.07-0.1,0.12-0.23,0.13-0.35c0.11-0.23,0.19-0.46,0.24-0.71c0.06-0.25,0.1-0.51,0.11-0.77C34.98,94.78,34.91,94.64,34.78,94.63  L34.78,94.63z M36.5,90.72h1.52c-0.03,0.63-0.11,1.26-0.25,1.88c-0.08-0.21-0.19-0.4-0.33-0.58l-0.51-0.51l-0.1-0.46  c-0.02-0.05-0.05-0.11-0.09-0.15c-0.09-0.06-0.17-0.14-0.24-0.22V90.72z M37.13,98.58c-0.13,0-0.19,0.04-0.19,0.1  c-0.01,0.13-0.03,0.27-0.06,0.4l-0.96-0.96c1.31-1.42,2.25-3.14,2.73-5.01l0.05-0.04c0.22,0.08,0.36,0.08,0.43,0  c0.05-0.05,0.08-0.12,0.1-0.19c-0.04-0.2-0.16-0.38-0.32-0.51h-0.08c0.1-0.55,0.17-1.11,0.19-1.68h2.77c-0.12,3.5-1.5,6.83-3.9,9.39  l-0.12-0.12v-0.03l-0.14-0.87C37.56,98.78,37.39,98.58,37.13,98.58L37.13,98.58z M36.44,84.6L36.44,84.6c0,0.11-0.03,0.22-0.07,0.32  c-0.04,0.11-0.08,0.22-0.13,0.32c0.14,0.18,0.31,0.33,0.51,0.45c0.2,0.14,0.4,0.29,0.58,0.45c0.13,0.23,0.22,0.49,0.29,0.74  c0.08,0.22,0.13,0.45,0.16,0.68c-0.04,0.16-0.1,0.32-0.19,0.46c-0.13,0.23-0.38,0.38-0.64,0.39l-0.07-0.07  c0.01-0.13,0.06-0.26,0.13-0.38c0.07-0.12,0.11-0.25,0.13-0.38c0.14-0.08,0.24-0.22,0.26-0.38l-0.2-0.1  c-0.12-0.09-0.22-0.18-0.32-0.29c0-0.13-0.13-0.19-0.38-0.19c-0.12-0.01-0.23,0.03-0.32,0.1c-0.1,0.08-0.21,0.15-0.32,0.22  l-0.13-0.25c0.04-0.08,0.06-0.18,0.07-0.27l-0.51-0.86c-0.22-0.12-0.46-0.19-0.71-0.22c-0.17-0.04-0.34-0.04-0.51,0  c-0.17,0.03-0.34,0.02-0.51-0.03c-0.2-0.02-0.39,0.05-0.54,0.19c-0.16,0.12-0.3,0.26-0.43,0.42c-0.07,0.08,0,0.18-0.17,0.14  c-0.06-0.05-0.12-0.11-0.16-0.17l2.95-2.92c0.02,0.03,0.04,0.07,0.07,0.1l0.25,0.29l0.27,0.34C36.04,84,36.24,84.3,36.44,84.6  L36.44,84.6z M29.41,103.95c0.24,0.2,0.52,0.34,0.83,0.43c-0.81,0.17-1.62,0.27-2.45,0.29v-2.77c0.11,0.17,0.25,0.32,0.41,0.44  c0.18,0.06,0.37,0.09,0.57,0.1c0.29,0.03,0.44,0.08,0.44,0.16c-0.01,0.1-0.04,0.2-0.1,0.29c-0.06,0.09-0.09,0.19-0.1,0.29  C29.01,103.49,29.16,103.77,29.41,103.95z M27.79,108.6v-2.95c1.08-0.03,2.16-0.18,3.21-0.44c0,0.02,0,0.04,0,0.06  c0,0.03,0,0.05,0,0.08c0.25,0.16,0.47,0.37,0.64,0.61c0.09,0.17,0.32,0.25,0.71,0.25c0.22,0,0.35-0.04,0.42-0.13  c0.07-0.09,0.14-0.18,0.23-0.26c0.09-0.09,0.2-0.16,0.32-0.2c0.11-0.02,0.2-0.09,0.26-0.19c0.19-0.07,0.36-0.2,0.46-0.38  c0.17-0.13,0.31-0.31,0.38-0.51c0.11-0.01,0.2-0.07,0.26-0.16c0.13-0.21,0.21-0.44,0.26-0.68l0.11-0.07c0-0.03,0-0.06,0-0.1  c1-0.59,1.93-1.29,2.78-2.08l2.08,2.09C36.62,106.67,32.31,108.47,27.79,108.6L27.79,108.6z M40.65,102.86l-2.09-2.08  c2.58-2.74,4.07-6.32,4.18-10.08h2.94C45.57,95.24,43.77,99.57,40.65,102.86L40.65,102.86z M45.69,89.72h-2.94  c-0.1-3.11-1.14-6.11-2.98-8.61c-0.03-0.1-0.08-0.19-0.15-0.27c-0.05-0.06-0.11-0.1-0.17-0.15L38.7,79.8  c-0.04-0.07-0.06-0.14-0.08-0.21l2.03-2.03C43.77,80.86,45.56,85.19,45.69,89.72z M27.79,71.84c4.54,0.12,8.87,1.93,12.16,5.07  l-1.79,1.79c-0.04-0.09-0.08-0.18-0.1-0.27c-0.14-0.13-0.23-0.2-0.27-0.2c-0.16-0.07-0.28-0.23-0.29-0.41  c-0.01-0.15-0.06-0.3-0.16-0.42c-0.28-0.1-0.51-0.3-0.65-0.57c-0.17-0.29-0.34-0.45-0.51-0.45c-0.14,0.04-0.29,0.03-0.42-0.05  c-0.13-0.06-0.27-0.1-0.42-0.12c-0.15,0-0.31,0.02-0.46,0.07c-0.17,0.05-0.34,0.09-0.51,0.13l-0.07,0.07  c-1.95-1.01-4.1-1.59-6.3-1.7c0.17-0.27,0.19-0.45,0.06-0.51c-0.04-0.04-0.13,0-0.28,0.15V71.84z M27.79,75.76  c2.09,0.07,4.13,0.59,6,1.52c0,0.02,0,0.03,0,0.05l0.25,0.28l0.22,0.25c0.05,0.19,0.11,0.38,0.18,0.56c0.06,0.11,0.12,0.22,0.2,0.32  c-0.04,0.19-0.01,0.38,0.1,0.54c0.1,0.19,0.22,0.37,0.35,0.54l0.25-0.03c0.1-0.02,0.21-0.03,0.32-0.04  c0.12,0.02,0.23,0.09,0.29,0.19c0.1,0.11,0.17,0.25,0.22,0.39c0.03,0.07,0.05,0.14,0.06,0.21l-0.79,0.79  c-0.08-0.37-0.21-0.73-0.38-1.07c-0.13-0.13-0.32-0.19-0.51-0.17c-0.05-0.04-0.19-0.23-0.46-0.56c-0.26-0.33-0.41-0.51-0.46-0.51  c-0.07-0.01-0.14,0.02-0.19,0.07c0.04,0.08,0.08,0.15,0.13,0.23l0.25,0.43c0.01,0.06-0.04,0.12-0.1,0.13c-0.01,0-0.02,0-0.03,0  c0.04,0.16,0.16,0.29,0.32,0.32l-0.07,0.13l0.19,0.38c-1.86-1.36-4.09-2.14-6.39-2.24L27.79,75.76z M27.79,79.51  c2.51,0.1,4.9,1.09,6.75,2.78l-1.98,1.98c-1.32-1.17-2.99-1.87-4.76-1.98L27.79,79.51z M27.79,83.29c1.4,0.1,2.74,0.63,3.84,1.52  c-0.05,0.02-0.09,0.04-0.13,0.08c-0.04,0.04-0.08,0.07-0.13,0.09c-0.04,0.02-0.06,0.07-0.06,0.15c0,0.1,0.14,0.15,0.24,0.16  l-0.75,0.73c-0.11,0.05-0.2,0.12-0.29,0.2c-0.18,0.09-0.27,0.16-0.3,0.23c-0.03,0.07-0.04,0.12-0.06,0.22l-0.25,0.25  c-0.04,0.01-0.07,0.01-0.11,0c-0.09,0-0.22-0.09-0.4-0.26c-0.18-0.18-0.3-0.25-0.4-0.25c-0.11-0.01-0.21,0.03-0.29,0.1  c-0.06,0.06-0.16,0.07-0.23,0.03c-0.09-0.09,0-0.18,0.29-0.29l0.56-0.23c0.33-0.24,0.52-0.63,0.51-1.04c0-0.22-0.09-0.33-0.26-0.33  l-0.2,0.19c-0.17,0.08-0.33,0.18-0.46,0.31l-0.33,0.31c-0.12-0.05-0.26-0.07-0.4-0.07h-0.38l0,0L27.79,83.29z M27.22,87.73  c0.03,0.07,0.07,0.1,0.12,0.1c0.11,0,0.22,0.03,0.31,0.1c0.1,0.06,0.22,0.08,0.33,0.04c0.01,0.05,0.04,0.09,0.08,0.12  c0.04,0.1,0.14,0.15,0.25,0.14l0.08,0.08c0.02,0.02,0.03,0.05,0.04,0.07c0.03,0.08,0.07,0.15,0.11,0.23h0.03v0.05  c0.06,0.04,0.14,0.05,0.21,0.03c0.05-0.02,0.11-0.02,0.16,0v0.14h0.04c0,0.05,0,0.1,0,0.16c0.02,0.1,0.03,0.19,0.03,0.29v0.13  c0,0.03-0.02,0.06-0.06,0.07c0,0-0.01,0-0.01,0c-0.12,0.09-0.19,0.23-0.21,0.38c0,0.09,0.05,0.12,0.17,0.1  c0.09-0.03,0.2,0.01,0.24,0.1c0.1,0.1,0.15,0.24,0.14,0.38v0.58c-0.01,0.08,0.03,0.15,0.1,0.19c0.07,0.04,0.1,0.08,0.1,0.13  c0,0.16-0.03,0.32-0.07,0.48c-0.02,0.15-0.09,0.3-0.19,0.42c-0.05,0.04-0.16,0.04-0.33,0c-0.15-0.04-0.31-0.06-0.47-0.07  c-0.09,0-0.18,0.13-0.26,0.38c-0.08,0.19-0.15,0.38-0.2,0.58c-0.04,0.17-0.13,0.25-0.26,0.25c-0.09,0-0.18,0.01-0.26,0.03h0.04  l-0.22,0.35l-0.07,0.09c-0.73-0.04-1.42-0.35-1.96-0.85l0.34-0.34c0.21-0.03,0.42-0.08,0.62-0.15l0.11-0.05  c0.34-0.15,0.31-0.43,0.51-0.73c0.11-0.2,0.44-0.42,0.18-0.64c0.29-0.51-1.05-0.51-1.29-0.41c-0.24,0.1-0.1,0.43-0.25,0.66  c-0.08,0.12-0.2,0.12-0.3,0.2c-0.22,0.18-0.4,0.41-0.51,0.67c-0.09-0.16-0.16-0.33-0.22-0.51h0.05c-0.03-0.05-0.04-0.09,0-0.1h0.07  v0.07c0.17,0.04,0.28,0.04,0.32,0c0.04-0.12,0.07-0.24,0.1-0.36c0.09-0.26,0.21-0.52,0.35-0.75c-0.08-0.04-0.13-0.11-0.15-0.2  c0-0.09-0.07-0.1-0.15-0.07c-0.08,0.04-0.12,0.11-0.12,0.2c-0.01,0.1-0.05,0.19-0.12,0.26c-0.06,0.08-0.15,0.12-0.25,0.13  c0.01-0.09-0.05-0.18-0.15-0.19c-0.01,0-0.03,0-0.04,0c-0.1,0.01-0.19,0.05-0.26,0.13c-0.09,0-0.29,0-0.61,0.06  c-0.2,0.05-0.41,0.05-0.61,0c-0.09-0.08,0-0.17,0.32-0.25c-0.03-0.27,0.07-0.54,0.27-0.73c0.12,0.07,0.25,0.11,0.39,0.13l0.13-0.13  h0.07c0.13,0,0.2,0.11,0.22,0.33s0.08,0.32,0.16,0.32c0.1-0.01,0.19-0.05,0.26-0.13v-0.34l0.19-0.72v-0.19  c0.05-0.12,0.12-0.23,0.2-0.32h0.08c0.09-0.07,0.19-0.12,0.3-0.14c0.07-0.12,0.11-0.26,0.13-0.4c0.13-0.04,0.35-0.13,0.68-0.26  c0.32-0.13,0.51-0.26,0.51-0.4v-0.04c0.14-0.03,0.29-0.05,0.44-0.06c0.01,0.06,0.03,0.12,0.08,0.16L27.22,87.73z M26.81,71.84v2.92  c-3.76,0.12-7.34,1.6-10.08,4.17l-2.08-2.08C17.94,73.74,22.27,71.95,26.81,71.84z M13.96,77.55l2.08,2.08  c-2.58,2.74-4.07,6.33-4.18,10.09H8.91C9.03,85.17,10.83,80.84,13.96,77.55L13.96,77.55z"/>
</svg>